{"glyphs":{":":{"x_min":0,"x_max":130,"ha":130,"o":"m 95 36 q 95 18 82 6 q 69 -7 51 -7 q 32 -7 19 6 q 6 18 6 36 q 6 55 19 68 q 32 81 51 81 q 69 81 82 68 q 95 55 95 36 z m 66 36 q 66 43 62 48 q 57 52 51 52 q 44 52 40 48 q 35 43 35 36 q 35 30 40 26 q 44 21 51 21 q 57 21 62 26 q 66 30 66 36 z m 95 186 q 95 168 82 155 q 69 142 51 142 q 32 142 19 155 q 6 168 6 186 q 6 205 19 218 q 32 231 51 231 q 69 231 82 218 q 95 205 95 186 z m 66 186 q 66 193 62 198 q 57 202 51 202 q 44 202 40 198 q 35 193 35 186 q 35 180 40 176 q 44 171 51 171 q 57 171 62 176 q 66 180 66 186 z"},"$":{"x_min":0,"x_max":193,"ha":193,"o":"m 184 257 q 184 233 164 218 q 145 202 122 196 q 118 196 114 195 q 111 194 107 194 l 107 92 l 78 92 l 78 196 q 76 196 74 196 q 71 197 69 198 q 49 203 32 215 q 15 227 10 246 q 10 247 10 248 q 9 250 9 251 q 9 252 9 254 q 9 255 9 256 q 9 269 16 279 q 24 289 38 290 q 38 290 38 290 q 38 290 39 290 q 39 290 39 290 q 39 290 39 290 q 57 290 70 276 q 84 261 85 244 q 85 243 85 242 q 85 242 85 241 q 85 239 85 237 q 85 235 84 233 q 84 231 83 229 q 82 227 81 225 q 85 224 90 224 q 94 223 99 223 q 105 223 111 224 q 117 225 121 229 q 123 230 124 232 q 125 233 126 234 q 126 235 126 236 q 127 238 127 239 q 127 243 120 250 q 113 257 103 265 q 102 266 100 268 q 99 269 97 270 q 89 276 82 282 q 74 288 70 291 q 49 306 32 322 q 15 338 15 358 q 15 381 32 395 q 50 409 70 415 q 72 416 74 416 q 76 417 78 417 l 78 527 l 107 527 l 107 418 q 109 418 112 418 q 114 417 116 417 q 135 414 152 404 q 168 394 173 374 q 173 373 174 372 q 174 370 174 369 q 174 368 174 366 q 174 365 174 364 q 174 352 167 342 q 160 333 146 332 q 146 332 146 332 q 146 332 146 332 q 145 332 145 332 q 145 332 145 332 q 128 332 116 346 q 103 360 102 376 q 102 377 102 378 q 102 378 102 379 q 102 380 102 382 q 102 383 103 384 q 103 385 104 386 q 104 388 104 389 q 103 389 102 389 q 101 389 101 390 q 100 390 99 390 q 98 390 97 390 q 96 390 94 390 q 92 390 91 390 q 83 389 76 386 q 70 382 70 375 q 70 372 77 366 q 84 359 93 352 q 94 351 96 350 q 97 349 99 347 q 106 342 113 337 q 120 332 124 329 q 147 313 166 296 q 184 279 184 257 z m 154 251 q 152 259 146 265 q 140 271 133 277 q 129 281 125 284 q 121 287 117 290 q 110 296 102 302 q 95 308 87 314 q 84 317 78 320 q 73 324 67 329 q 61 334 55 340 q 49 345 46 350 q 45 353 44 355 q 44 357 44 359 q 44 359 44 360 q 44 360 44 361 q 49 351 57 344 q 65 337 75 330 q 76 329 78 328 q 79 327 81 326 q 83 324 86 322 q 89 320 91 318 q 96 314 104 309 q 111 304 119 298 q 127 292 134 286 q 142 279 147 273 q 151 269 153 264 q 155 260 155 256 q 155 255 155 254 q 155 253 154 251 z"},"?":{"x_min":0,"x_max":337,"ha":337,"o":"m 192 36 q 192 18 179 6 q 166 -7 147 -7 q 129 -7 116 6 q 103 18 103 36 q 103 55 116 68 q 129 81 147 81 q 166 81 179 68 q 192 55 192 36 z m 163 36 q 163 43 158 48 q 154 52 147 52 q 141 52 136 48 q 132 43 132 36 q 132 30 136 26 q 141 21 147 21 q 154 21 158 26 q 163 30 163 36 z m 328 411 q 328 402 327 392 q 326 382 324 373 q 318 340 300 310 q 282 280 251 267 q 244 264 236 260 q 227 255 218 251 q 195 238 176 219 q 157 200 157 174 q 157 171 157 164 q 157 156 157 147 q 157 139 157 132 q 157 125 157 121 l 128 121 q 128 125 128 132 q 128 139 128 147 q 128 156 128 164 q 128 171 128 174 q 128 212 148 244 q 169 275 197 297 q 225 318 238 348 q 250 377 250 411 q 250 442 242 468 q 235 495 220 514 q 209 528 192 538 q 175 548 156 550 q 153 551 150 551 q 148 551 145 551 q 143 551 142 551 q 140 551 138 550 q 136 550 134 550 q 133 549 131 549 q 94 541 66 514 q 38 487 35 448 q 37 448 40 448 q 42 447 44 447 q 57 443 68 432 q 80 420 83 407 q 83 406 83 404 q 83 403 83 402 q 82 398 80 394 q 79 389 76 385 q 73 381 68 378 q 64 376 59 375 q 58 374 56 374 q 55 374 53 374 q 51 374 49 374 q 47 374 46 375 q 31 378 20 390 q 8 403 7 418 q 6 424 6 430 q 5 435 5 440 q 5 502 54 542 q 104 581 166 581 q 235 581 282 530 q 328 479 328 411 z m 281 336 q 290 353 294 372 q 299 391 299 410 q 299 441 287 470 q 275 499 251 520 q 264 500 271 476 q 278 452 279 427 q 279 424 279 422 q 279 419 279 416 q 279 381 268 348 q 256 315 233 291 q 250 299 262 310 q 273 320 281 336 z"},"<":{"x_min":0,"x_max":583,"ha":583,"o":"m 54 309 l 54 365 l 381 503 l 381 443 l 122 337 l 381 229 l 381 169 z"},"'":{"x_min":0,"x_max":98,"ha":98,"o":"m 84 520 l 42 464 l 19 481 l 36 504 q 34 504 32 505 q 31 506 29 507 q 27 508 26 509 q 24 510 22 511 q 14 518 10 528 q 5 537 5 547 q 5 554 7 560 q 9 567 13 573 q 20 582 30 586 q 39 591 49 591 q 51 591 54 591 q 56 591 58 590 q 63 589 68 587 q 72 585 76 582 q 84 575 88 566 q 93 557 93 546 q 93 539 91 532 q 89 526 84 520 z m 61 537 q 63 539 64 541 q 64 543 65 546 q 65 550 63 554 q 61 557 58 559 q 57 560 56 560 q 54 561 53 561 q 52 562 50 562 q 49 562 48 562 q 47 562 46 562 q 45 562 44 561 q 42 561 40 560 q 38 558 36 556 q 35 554 34 552 q 33 549 33 547 q 33 543 34 540 q 36 536 39 534 q 40 533 42 532 q 43 532 44 532 q 45 531 46 531 q 48 531 49 531 q 53 531 56 532 q 59 534 61 537 z"},"=":{"x_min":0,"x_max":583,"ha":583,"o":"m 386 398 l 55 398 l 55 456 l 386 456 z m 386 246 l 55 246 l 55 304 l 386 304 z"},"a":{"x_min":0,"x_max":283,"ha":283,"o":"m 274 60 q 274 33 256 17 q 237 1 214 1 q 201 1 189 7 q 177 13 168 26 q 154 13 138 6 q 122 0 105 1 q 86 1 67 10 q 48 18 34 34 q 20 51 12 72 q 5 92 6 114 q 6 135 13 155 q 20 175 34 191 q 48 208 67 216 q 86 225 105 225 q 119 225 132 220 q 145 216 157 208 l 157 219 q 174 219 192 219 q 209 219 225 219 q 225 174 225 129 q 225 84 225 39 q 225 37 226 36 q 228 34 230 34 q 231 34 232 34 q 232 35 233 35 q 239 39 242 46 q 246 53 246 60 l 274 60 z m 157 57 l 157 169 q 152 176 145 182 q 138 187 130 191 q 128 192 126 192 q 124 193 122 193 q 113 192 106 186 q 99 180 94 172 q 87 159 84 144 q 80 129 80 112 q 80 96 84 81 q 87 66 94 54 q 101 44 108 39 q 115 34 122 34 q 131 34 140 40 q 149 47 157 57 z m 198 37 q 198 37 198 38 q 198 38 198 38 q 198 38 198 38 q 198 39 198 39 l 198 185 l 187 185 l 187 60 q 187 53 190 47 q 193 41 198 37 z m 73 39 q 64 52 60 70 q 55 89 55 109 q 55 111 55 112 q 55 114 55 116 q 56 136 60 155 q 65 174 73 187 q 54 175 44 155 q 34 135 34 112 q 34 90 44 70 q 54 50 73 39 z"},"L":{"x_min":0,"x_max":455,"ha":455,"o":"m 733 -33 q 733 -33 733 -34 q 733 -34 733 -35 q 732 -35 732 -36 q 732 -36 732 -36 q 732 -39 731 -42 q 730 -45 727 -52 q 711 -99 678 -118 q 646 -138 605 -138 q 580 -138 553 -132 q 526 -126 499 -117 q 472 -107 445 -94 q 418 -82 393 -70 q 365 -55 340 -41 q 316 -27 298 -17 q 268 -1 239 14 q 210 29 183 42 q 161 15 130 0 q 100 -15 66 -16 q 34 -16 18 2 q 1 20 1 42 q 2 65 18 85 q 35 105 69 106 q 70 106 70 106 q 71 106 72 106 q 72 106 72 106 q 73 106 74 106 q 91 106 110 102 q 130 97 152 89 q 157 104 159 122 q 161 140 161 160 q 161 220 161 280 q 161 339 161 398 q 161 408 162 419 q 163 430 165 440 q 175 499 212 548 q 250 596 315 596 q 360 596 398 568 q 435 541 435 491 q 435 466 418 448 q 402 430 382 431 q 380 431 378 431 q 375 431 373 432 q 366 433 360 438 q 353 442 347 449 q 340 457 338 464 q 335 472 335 479 q 335 492 344 500 q 354 507 367 507 q 370 507 373 506 q 376 506 378 505 q 386 502 393 496 q 400 491 405 482 q 406 486 406 490 q 407 493 407 496 q 406 522 386 540 q 366 559 341 565 q 337 566 332 566 q 328 567 324 567 q 324 567 324 567 q 324 567 324 567 q 323 567 323 567 q 323 567 323 567 q 280 566 260 534 q 241 503 237 465 q 236 460 236 456 q 236 451 236 446 q 236 383 236 320 q 236 257 236 195 q 236 160 228 128 q 219 96 203 70 q 229 59 255 46 q 281 34 307 22 q 310 20 314 18 q 317 17 321 15 q 362 -4 404 -24 q 446 -43 490 -59 q 524 -71 556 -78 q 587 -86 613 -86 q 642 -86 665 -76 q 688 -65 701 -40 q 703 -36 706 -32 q 708 -28 709 -23 l 733 -33 z m 142 63 q 139 64 134 66 q 130 67 125 68 q 118 71 110 72 q 101 74 92 76 q 88 76 84 76 q 79 77 75 77 q 61 77 50 72 q 38 68 33 56 q 32 54 32 52 q 31 51 31 49 q 30 47 30 46 q 30 44 30 42 q 30 29 40 20 q 50 12 65 12 q 91 12 110 26 q 130 41 142 63 z m 214 499 q 202 478 196 452 q 190 427 190 398 q 190 339 190 280 q 190 220 190 160 q 190 141 188 124 q 186 107 182 92 q 194 114 200 140 q 207 166 207 195 q 207 257 207 320 q 207 383 207 446 q 207 460 208 474 q 210 487 214 499 z"},"3":{"x_min":0,"x_max":277,"ha":277,"o":"m 252 129 q 252 102 241 78 q 230 55 212 38 q 191 19 166 10 q 140 0 114 0 q 81 0 50 16 q 20 31 0 62 l 24 77 q 36 59 55 46 q 74 34 95 31 q 96 31 96 31 q 97 31 98 31 q 98 31 98 31 q 99 31 100 31 q 103 31 106 32 q 108 32 110 32 q 119 35 128 40 q 136 45 142 51 q 143 52 144 53 q 146 54 147 55 q 161 70 168 90 q 175 109 175 129 q 175 149 168 167 q 162 185 149 200 q 137 214 122 221 q 106 228 88 228 l 88 229 q 81 229 72 229 q 64 229 56 229 l 161 366 l 35 366 l 35 395 l 220 395 l 115 258 q 169 259 210 222 q 252 185 252 129 z m 177 47 q 198 61 210 81 q 221 101 223 123 q 223 125 223 126 q 223 128 223 130 q 223 153 212 175 q 200 197 177 212 q 191 194 198 173 q 204 152 204 130 q 204 127 204 124 q 204 121 203 118 q 202 99 196 80 q 189 62 177 47 z"},";":{"x_min":0,"x_max":130,"ha":130,"o":"m 86 10 l 44 -46 l 21 -29 l 38 -6 q 36 -5 34 -4 q 33 -3 31 -2 q 29 -1 28 0 q 26 0 24 1 q 16 8 12 18 q 7 27 7 37 q 7 44 9 50 q 11 57 15 63 q 22 72 32 76 q 41 81 51 81 q 53 81 56 81 q 58 81 60 80 q 65 79 70 77 q 74 75 78 72 q 86 65 90 56 q 95 47 95 36 q 95 29 93 22 q 91 16 86 10 z m 63 27 q 65 29 66 31 q 66 33 67 36 q 67 40 65 44 q 63 47 60 49 q 59 50 58 50 q 56 51 55 51 q 54 52 52 52 q 51 52 50 52 q 49 52 48 52 q 47 52 46 51 q 44 51 42 50 q 40 48 38 46 q 37 44 36 42 q 35 39 35 37 q 35 33 36 30 q 38 26 41 24 q 42 23 44 22 q 45 22 46 22 q 47 21 48 21 q 50 21 51 21 q 55 21 58 22 q 61 24 63 27 z m 95 186 q 95 168 82 155 q 69 142 51 142 q 32 142 19 155 q 6 168 6 186 q 6 205 19 218 q 32 231 51 231 q 69 231 82 218 q 95 205 95 186 z m 66 186 q 66 193 62 198 q 57 202 51 202 q 44 202 40 198 q 35 193 35 186 q 35 180 40 176 q 44 171 51 171 q 57 171 62 176 q 66 180 66 186 z"},"J":{"x_min":0,"x_max":242,"ha":242,"o":"m 219 553 l 149 553 q 149 414 149 276 q 149 137 149 -2 q 149 -14 148 -26 q 147 -38 145 -51 q 133 -118 90 -174 q 48 -229 -26 -229 q -28 -229 -30 -229 q -32 -229 -34 -229 q -83 -226 -123 -196 q -163 -165 -163 -109 q -163 -107 -163 -104 q -163 -102 -162 -99 q -159 -78 -144 -60 q -129 -43 -109 -43 q -101 -43 -92 -48 q -84 -52 -76 -62 q -69 -70 -66 -78 q -64 -85 -64 -92 q -64 -104 -73 -112 q -82 -119 -95 -119 q -98 -119 -102 -118 q -106 -118 -109 -116 q -115 -114 -121 -110 q -127 -105 -132 -97 q -134 -102 -134 -106 q -134 -110 -134 -114 q -134 -144 -110 -168 q -86 -192 -57 -198 q -53 -199 -49 -200 q -45 -200 -41 -200 q -41 -200 -41 -200 q -41 -200 -41 -200 q -40 -200 -40 -200 q -40 -200 -40 -200 q 7 -199 33 -164 q 59 -128 68 -85 q 71 -71 72 -58 q 74 -45 74 -33 l 74 553 l 3 553 l 3 582 l 219 582 l 219 553 z m 121 -3 l 121 553 l 103 553 q 103 480 103 406 q 103 333 103 260 q 103 186 103 113 q 103 40 103 -33 q 103 -60 98 -86 q 94 -112 84 -134 q 101 -108 111 -74 q 121 -40 121 -2 z"},"V":{"x_min":0,"x_max":510,"ha":510,"o":"m 467 350 l 276 -21 l 59 553 l 1 553 l 1 582 l 186 582 l 186 553 l 141 553 l 310 106 q 328 138 344 170 q 360 202 376 234 q 392 266 408 298 q 424 331 442 363 q 453 383 459 406 q 465 430 465 455 q 465 485 455 512 q 445 540 422 559 q 404 573 384 580 q 363 587 341 587 q 316 587 292 578 q 269 568 251 548 q 243 540 239 530 q 235 521 234 512 q 233 509 233 506 q 233 504 233 502 q 234 502 234 502 q 235 502 236 503 q 237 503 238 503 q 239 503 240 503 q 255 502 268 490 q 281 477 285 462 q 285 461 286 459 q 286 457 286 455 q 286 454 286 454 q 286 453 286 451 q 286 438 278 430 q 269 421 257 421 q 254 421 250 422 q 247 423 243 424 l 242 425 q 229 430 220 443 q 211 456 210 470 q 207 478 206 486 q 204 495 204 503 q 204 547 240 578 q 277 609 321 615 q 324 615 326 616 q 329 616 332 616 q 334 616 336 616 q 339 616 341 616 q 367 616 392 608 q 418 599 440 582 q 468 560 480 526 q 493 493 493 457 q 493 429 486 401 q 479 373 467 350 z m 294 76 l 111 553 l 85 553 l 282 45 l 294 76 z"},"\"":{"x_min":0,"x_max":187,"ha":187,"o":"m 84 520 l 42 464 l 19 481 l 36 504 q 34 504 32 505 q 31 506 29 507 q 27 508 26 509 q 24 510 22 511 q 14 518 10 528 q 5 537 5 547 q 5 554 7 560 q 9 567 13 573 q 20 582 30 586 q 39 591 49 591 q 51 591 54 591 q 56 591 58 590 q 63 589 68 587 q 72 585 76 582 q 84 575 88 566 q 93 557 93 546 q 93 539 91 532 q 89 526 84 520 z m 61 537 q 63 539 64 541 q 64 543 65 546 q 65 550 63 554 q 61 557 58 559 q 57 560 56 560 q 54 561 53 561 q 52 562 50 562 q 49 562 48 562 q 47 562 46 562 q 45 562 44 561 q 42 561 40 560 q 38 558 36 556 q 35 554 34 552 q 33 549 33 547 q 33 543 34 540 q 36 536 39 534 q 40 533 42 532 q 43 532 44 532 q 45 531 46 531 q 48 531 49 531 q 53 531 56 532 q 59 534 61 537 z m 174 520 l 132 464 l 109 481 l 126 504 q 124 504 122 505 q 121 506 119 507 q 117 508 116 509 q 114 510 112 511 q 104 518 100 528 q 95 537 95 547 q 95 554 97 560 q 99 567 103 573 q 110 582 120 586 q 129 591 139 591 q 141 591 144 591 q 146 591 148 590 q 153 589 158 587 q 162 585 166 582 q 174 575 178 566 q 183 557 183 546 q 183 539 181 532 q 179 526 174 520 z m 151 537 q 153 539 154 541 q 154 543 155 546 q 155 550 153 554 q 151 557 148 559 q 147 560 146 560 q 144 561 143 561 q 142 562 140 562 q 139 562 138 562 q 137 562 136 562 q 135 562 134 561 q 132 561 130 560 q 128 558 126 556 q 125 554 124 552 q 123 549 123 547 q 123 543 124 540 q 126 536 129 534 q 130 533 132 532 q 133 532 134 532 q 135 531 136 531 q 138 531 139 531 q 143 531 146 532 q 149 534 151 537 z"},"7":{"x_min":0,"x_max":268,"ha":268,"o":"m 205 395 l 40 -72 l -39 -72 l 115 366 l 6 366 l 6 395 l 205 395 z m 164 366 l 146 366 l 2 -43 l 20 -43 l 164 366 z"},"S":{"x_min":0,"x_max":394,"ha":394,"o":"m 371 133 q 371 62 316 28 q 260 -7 194 -9 q 191 -9 188 -9 q 186 -9 183 -9 q 157 -9 132 -4 q 106 0 85 10 q 50 26 27 62 q 4 97 2 136 q 2 138 2 140 q 2 143 2 145 q 2 165 8 183 q 14 201 27 217 q 41 234 58 242 q 76 250 95 250 q 119 249 140 234 q 160 220 165 190 q 166 187 166 184 q 166 181 166 179 q 166 155 151 138 q 136 120 115 121 q 111 121 108 122 q 104 122 101 123 q 97 125 94 126 q 90 128 86 131 q 75 139 70 148 q 65 157 65 166 q 65 179 74 188 q 83 196 97 196 q 104 196 111 194 q 118 191 125 186 q 129 184 132 181 q 135 178 137 175 q 137 175 137 176 q 137 176 137 177 q 137 178 137 178 q 137 179 137 179 q 137 200 124 210 q 111 221 94 221 q 92 221 90 221 q 88 221 86 220 q 76 219 66 214 q 57 208 49 199 q 39 187 34 173 q 30 159 30 144 q 30 142 30 140 q 30 137 30 135 q 33 104 52 76 q 70 49 97 36 q 116 27 137 22 q 158 18 180 18 q 225 18 261 42 q 297 65 297 120 q 297 173 262 212 q 227 251 185 287 q 184 288 182 290 q 181 291 179 292 q 134 330 98 372 q 62 415 62 475 q 62 537 105 569 q 148 601 201 601 q 204 601 206 601 q 209 601 212 601 q 236 599 260 590 q 283 582 302 566 l 302 585 l 331 585 l 331 432 l 302 432 l 302 523 q 289 544 267 556 q 245 567 221 569 q 218 570 216 570 q 213 570 210 570 q 179 570 154 552 q 130 533 130 493 q 130 455 151 429 q 172 403 198 380 q 199 379 200 378 q 201 376 203 375 q 209 370 214 364 q 220 359 226 353 q 235 343 245 334 q 255 324 265 314 q 266 313 267 312 q 268 312 269 311 q 307 274 339 234 q 371 193 371 133 z m 343 133 q 343 183 314 220 q 285 257 250 289 q 246 293 242 296 q 239 300 235 303 q 227 311 220 318 q 212 325 205 333 q 205 333 202 336 q 199 339 195 342 q 195 342 194 342 q 194 343 194 343 q 191 346 188 348 q 186 351 185 352 q 184 353 184 354 q 183 354 182 354 q 151 382 126 416 q 100 451 101 492 q 101 501 102 510 q 104 519 107 529 q 100 519 96 506 q 91 492 91 475 q 91 423 126 384 q 161 345 203 309 q 250 270 288 227 q 326 184 326 120 q 326 104 323 90 q 320 77 315 65 q 329 79 336 96 q 343 114 343 133 z"},"}":{"x_min":0,"x_max":333,"ha":333,"o":"m 201 374 l 201 323 q 178 323 163 310 q 148 298 143 277 q 138 256 138 204 q 137 153 136 136 q 133 110 126 94 q 118 79 106 70 q 95 60 78 55 q 66 52 40 52 l 23 52 l 23 100 l 32 100 q 64 100 74 112 q 85 123 85 164 q 85 241 88 262 q 93 296 108 316 q 123 337 150 348 q 114 365 100 393 q 85 421 85 488 q 85 548 84 559 q 82 580 72 588 q 62 597 32 597 l 23 597 l 23 645 l 40 645 q 70 645 84 640 q 104 633 116 617 q 129 601 133 576 q 137 552 138 496 q 138 441 143 420 q 148 399 163 386 q 178 374 201 374 z"},"Z":{"x_min":0,"x_max":621,"ha":621,"o":"m 579 108 q 579 140 564 169 q 548 198 522 217 l 543 241 q 572 219 589 186 q 606 153 608 118 q 608 117 608 115 q 608 113 608 111 q 608 85 598 60 q 588 34 565 14 q 546 -2 524 -10 q 501 -17 478 -17 q 462 -17 446 -14 q 429 -10 414 -3 q 397 4 378 16 q 359 29 337 42 q 332 46 326 50 q 320 53 315 56 q 298 67 280 78 q 262 88 243 98 q 238 88 232 78 q 227 69 222 59 q 206 30 176 10 q 145 -10 111 -14 q 108 -15 104 -15 q 101 -15 97 -15 q 79 -15 62 -10 q 44 -4 30 9 q 16 22 8 39 q 1 56 1 75 q 1 83 3 92 q 5 100 8 108 q 21 139 52 150 q 84 162 118 163 q 120 163 121 163 q 122 163 123 163 q 126 163 128 163 q 131 163 133 163 q 149 162 164 160 q 179 158 191 155 l 409 553 l 131 553 l 131 443 l 102 443 l 102 582 l 505 582 l 258 126 q 271 119 284 112 q 297 104 309 97 q 321 89 333 82 q 345 74 356 67 q 362 63 368 59 q 374 55 381 51 q 405 36 432 23 q 458 10 486 11 q 489 11 492 11 q 494 11 496 11 q 534 15 556 43 q 579 71 579 108 z m 177 129 q 166 131 152 132 q 137 134 122 134 q 121 134 120 134 q 118 134 116 134 q 84 133 57 120 q 30 108 30 73 q 30 52 46 34 q 61 17 82 14 q 83 14 84 14 q 84 14 85 14 q 86 14 87 14 q 88 14 89 14 q 109 14 119 27 q 129 40 137 55 q 138 56 138 58 q 139 59 139 60 q 141 62 142 64 q 143 67 144 69 q 152 84 160 99 q 169 114 177 129 z m 457 553 l 442 553 q 418 510 394 466 q 371 423 347 379 q 299 292 252 206 q 204 119 157 31 q 169 39 179 50 q 189 60 196 73 l 457 553 z"},"x":{"x_min":0,"x_max":266,"ha":266,"o":"m 251 59 q 251 34 232 17 q 214 0 191 0 q 184 1 178 2 q 171 4 165 7 q 155 12 149 19 q 143 26 138 35 q 137 36 136 37 q 136 38 135 39 q 125 25 108 14 q 91 4 72 1 q 69 1 66 1 q 64 1 62 1 q 61 1 59 1 q 57 1 56 1 q 54 1 52 2 q 51 2 49 2 q 48 2 48 2 q 47 2 46 3 q 33 6 22 16 q 12 27 12 41 q 12 42 12 42 q 12 43 13 44 q 13 45 13 46 q 13 46 13 47 q 16 60 25 66 q 34 71 44 71 q 46 71 48 71 q 50 71 52 70 q 66 68 77 59 q 88 50 91 37 q 99 42 106 49 q 113 56 117 65 l 36 184 q 34 180 32 176 q 30 171 30 166 l 1 166 q 1 192 20 208 q 38 225 60 225 q 67 225 74 224 q 80 222 87 218 q 96 214 102 208 q 108 201 113 194 q 114 192 116 190 q 117 188 118 186 q 128 200 144 210 q 160 221 177 224 q 180 225 184 225 q 187 225 191 225 q 195 225 198 225 q 201 225 204 224 q 205 224 206 224 q 208 223 209 223 q 221 219 232 208 q 242 197 241 183 q 241 182 241 181 q 241 180 241 178 q 238 165 229 160 q 220 155 209 155 q 207 155 206 155 q 204 155 202 155 q 194 156 186 160 q 179 163 173 169 q 169 173 166 178 q 164 183 162 188 q 154 184 147 176 q 140 169 136 160 l 216 41 q 218 44 220 47 q 221 50 221 53 q 222 54 222 56 q 222 58 222 59 l 251 59 z m 189 29 l 85 184 q 81 189 76 192 q 70 195 63 196 l 168 42 l 167 42 q 171 37 176 34 q 182 30 189 29 z"},")":{"x_min":0,"x_max":189,"ha":189,"o":"m 8 -100 l 8 -67 q 48 -41 68 8 q 89 57 97 111 q 103 148 104 184 q 106 220 106 248 q 106 306 100 358 q 93 410 80 452 q 70 484 54 514 q 38 544 8 563 l 8 596 q 86 565 124 493 q 161 421 173 340 q 176 317 178 294 q 179 270 179 248 q 179 187 168 132 q 158 77 138 33 q 117 -13 86 -46 q 56 -80 8 -99 z m 107 34 q 130 81 141 136 q 152 192 152 249 q 152 306 141 361 q 130 416 107 463 q 122 414 130 358 q 137 303 137 246 q 137 191 130 136 q 122 82 107 34 z"},"&":{"x_min":0,"x_max":577,"ha":577,"o":"m 531 311 q 515 295 495 290 q 475 286 453 286 q 447 286 442 286 q 436 286 431 287 q 425 287 420 287 q 414 287 408 287 q 434 267 446 240 q 459 212 459 182 q 459 178 458 173 q 458 168 458 164 q 455 146 448 128 q 442 110 432 94 q 439 75 442 56 q 445 38 445 19 q 445 -18 431 -53 q 417 -88 388 -116 q 360 -145 324 -158 q 289 -172 252 -172 q 200 -172 154 -146 q 107 -119 80 -69 l 105 -57 q 125 -94 162 -118 q 198 -142 238 -142 q 261 -142 282 -132 q 304 -123 323 -103 q 346 -78 357 -46 q 368 -14 368 19 q 368 22 368 25 q 368 28 368 31 q 338 12 302 3 q 267 -6 230 -6 q 145 -6 74 44 q 2 95 2 189 q 2 255 48 294 q 94 332 149 357 q 166 365 183 372 q 200 379 215 386 q 214 388 214 390 q 213 392 213 394 q 208 412 204 432 q 199 451 197 472 q 196 477 196 482 q 196 487 196 492 q 196 518 203 541 q 210 564 226 582 q 239 596 254 604 q 270 612 285 614 q 289 615 292 615 q 295 615 298 615 q 338 614 370 584 q 401 553 401 506 q 401 449 365 426 q 329 402 286 385 q 279 382 272 379 q 265 376 258 373 q 265 358 274 344 q 282 330 291 316 q 337 315 382 315 q 428 315 474 315 q 496 315 510 330 q 523 344 525 361 q 525 363 525 364 q 525 366 525 368 q 525 382 516 393 q 508 404 490 404 q 484 404 480 403 q 477 402 475 401 q 473 400 472 400 q 470 399 468 399 q 466 398 462 402 q 458 406 448 418 q 452 421 456 423 q 459 425 462 427 q 469 431 476 432 q 484 434 490 434 q 516 434 536 414 q 555 393 555 365 q 555 361 554 356 q 554 351 553 347 q 550 338 545 329 q 540 320 531 311 z m 359 -105 q 390 -78 403 -48 q 416 -18 416 13 q 416 21 416 28 q 415 36 413 44 q 407 82 388 120 q 369 157 345 190 q 363 156 376 121 q 390 86 394 50 q 396 42 396 33 q 397 24 397 15 q 397 -15 388 -46 q 379 -76 359 -104 z m 364 63 q 355 106 335 146 q 315 187 292 226 q 286 235 280 245 q 275 255 270 264 q 267 270 264 276 q 261 281 258 286 q 233 284 214 264 q 195 245 195 219 q 195 217 195 215 q 195 213 196 211 q 196 209 196 207 q 197 205 198 203 q 203 211 209 214 q 215 218 222 217 q 224 217 226 216 q 227 216 229 216 q 243 212 255 200 q 267 187 269 173 q 270 171 270 169 q 270 167 270 165 q 270 158 268 152 q 265 146 258 141 q 254 138 250 136 q 245 135 240 135 q 235 136 230 138 q 224 139 219 142 q 192 154 180 176 q 167 197 167 220 q 167 221 167 222 q 167 223 167 224 q 168 254 188 280 q 208 306 244 314 q 239 325 234 336 q 230 347 225 359 q 224 358 218 356 q 212 353 205 350 q 205 350 204 350 q 204 350 204 350 q 197 347 191 344 q 185 341 185 341 q 138 319 112 276 q 87 233 87 185 q 87 154 98 124 q 110 93 135 68 q 159 43 188 32 q 216 21 246 21 q 277 21 307 32 q 337 43 364 63 z m 107 56 q 83 84 71 118 q 59 152 59 187 q 59 214 66 240 q 73 266 87 289 q 61 269 48 245 q 34 221 32 196 q 31 193 31 190 q 31 188 31 185 q 31 183 31 181 q 31 179 31 177 q 33 143 53 111 q 73 79 107 56 z m 417 127 q 423 141 426 155 q 429 169 429 183 q 429 224 403 255 q 377 286 328 287 l 310 287 q 317 277 324 268 q 331 258 338 248 q 340 246 342 244 q 343 241 345 239 q 365 212 384 184 q 402 157 417 127 z m 372 506 q 372 545 349 564 q 326 584 298 584 q 270 584 248 564 q 225 545 225 506 q 225 478 230 452 q 236 425 246 399 q 251 401 256 403 q 261 405 266 407 q 270 409 275 410 q 280 412 284 414 q 317 426 344 446 q 372 465 372 506 z"},"_":{"x_min":0,"x_max":556,"ha":556,"o":"m -15 -199 l -15 -135 l 567 -135 l 567 -199 z"},"v":{"x_min":0,"x_max":214,"ha":214,"o":"m 192 111 q 192 108 192 106 q 192 103 192 101 q 189 63 166 32 q 142 1 100 1 q 99 1 97 1 q 95 1 94 1 q 92 0 90 0 q 89 0 87 0 q 72 1 58 4 q 43 8 32 16 q 19 25 10 42 q 2 58 2 84 l 2 225 l 71 225 l 71 53 q 71 42 77 36 q 83 30 95 30 q 98 30 101 30 q 104 30 107 31 q 115 32 124 36 q 132 39 138 45 q 152 57 158 74 q 163 92 163 111 q 163 123 161 135 q 159 147 156 157 q 152 154 148 153 q 144 152 139 152 q 137 152 134 152 q 132 153 130 153 q 127 154 124 155 q 122 156 120 157 q 110 163 103 174 q 96 186 96 199 q 97 205 99 210 q 101 216 105 221 q 110 226 116 228 q 121 230 127 230 q 129 230 130 230 q 132 230 134 229 q 139 228 144 226 q 149 223 153 219 q 154 218 155 217 q 156 216 157 215 q 158 214 158 213 q 159 212 160 211 q 173 195 182 170 q 191 145 192 118 q 192 116 192 114 q 192 113 192 111 z m 43 44 q 42 46 42 48 q 42 51 42 53 l 42 196 l 30 196 l 30 84 q 30 70 34 60 q 37 50 43 44 z"},"O":{"x_min":0,"x_max":563,"ha":563,"o":"m 543 292 q 543 179 468 86 q 392 -6 272 -6 q 152 -6 76 86 q 1 179 1 292 q 1 405 76 498 q 151 591 272 591 q 392 591 468 498 q 543 406 543 292 z m 408 99 q 437 140 452 190 q 467 241 466 293 q 466 296 466 299 q 466 302 466 305 q 464 353 450 400 q 436 447 408 485 q 382 521 347 542 q 312 563 272 563 q 232 563 197 542 q 162 521 136 485 q 107 445 92 394 q 77 344 78 291 q 78 288 78 285 q 78 282 78 279 q 80 231 94 184 q 108 137 136 99 q 165 61 200 42 q 235 22 272 22 q 309 22 344 42 q 380 61 408 99 z m 98 104 q 73 145 60 194 q 48 243 49 293 q 49 343 61 391 q 73 439 98 480 q 64 441 47 392 q 30 343 30 292 q 30 241 47 192 q 64 143 98 104 z m 445 104 q 480 144 497 193 q 514 242 514 293 q 514 296 514 299 q 514 302 514 305 q 512 352 494 398 q 477 443 445 480 q 471 439 483 390 q 495 341 495 291 q 495 242 482 194 q 470 145 445 104 z"},"(":{"x_min":0,"x_max":189,"ha":189,"o":"m 180 -100 q 132 -80 102 -46 q 71 -13 50 33 q 31 77 20 132 q 9 187 9 248 q 9 270 10 294 q 12 317 15 340 q 27 421 64 493 q 102 565 180 596 l 180 563 q 150 544 134 514 q 118 484 108 452 q 95 410 88 358 q 82 306 82 248 q 82 220 84 184 q 85 148 91 111 q 99 57 120 8 q 140 -41 180 -66 l 180 -100 z m 81 34 q 66 84 58 139 q 51 194 51 250 q 51 306 58 360 q 66 414 81 463 q 59 416 48 360 q 36 305 36 248 q 36 191 48 136 q 59 81 81 34 z"},"C":{"x_min":0,"x_max":478,"ha":478,"o":"m 461 97 q 429 57 384 32 q 340 6 289 1 q 286 1 283 1 q 280 1 277 1 q 274 0 271 0 q 268 0 265 0 q 148 0 74 90 q 1 180 1 291 q 1 409 80 496 q 159 582 280 582 q 286 582 292 582 q 298 581 304 580 q 358 573 403 536 q 448 498 448 439 q 448 415 434 397 q 420 379 401 379 q 397 379 392 380 q 388 381 384 384 q 380 386 376 390 q 371 394 367 400 q 361 408 358 416 q 356 423 356 430 q 357 444 366 452 q 374 460 387 460 q 391 460 395 459 q 399 458 403 456 q 407 453 411 450 q 415 447 419 442 q 418 486 384 514 q 349 543 309 551 q 304 552 299 552 q 294 553 289 553 l 289 552 q 240 552 202 534 q 163 515 137 483 q 107 446 92 395 q 77 344 77 289 q 77 288 77 288 q 77 287 77 286 q 78 189 128 108 q 179 28 282 29 q 288 29 294 30 q 299 30 304 31 q 343 38 380 62 q 416 87 439 115 l 461 97 z m 89 462 q 59 425 44 381 q 30 337 30 290 q 30 244 44 200 q 59 156 87 119 q 69 153 60 194 q 51 234 49 275 q 49 279 49 282 q 49 286 49 289 q 49 336 59 380 q 69 425 89 462 z"},"W":{"x_min":0,"x_max":804,"ha":804,"o":"m 792 553 l 723 553 l 559 -21 l 399 318 l 253 -26 l 79 553 l 4 553 l 4 582 l 220 582 l 220 553 l 156 553 l 289 132 l 382 352 q 363 395 348 440 q 333 484 333 531 q 333 537 334 544 q 334 550 335 556 q 339 589 357 617 q 375 645 413 645 q 427 644 440 636 q 454 628 463 612 q 473 596 477 580 q 481 564 481 547 q 481 519 472 492 q 462 465 450 438 q 447 432 444 425 q 442 418 439 412 l 573 122 l 693 553 l 623 553 l 623 582 l 792 582 l 792 553 z m 561 80 q 542 122 522 164 q 503 205 484 247 q 464 289 445 330 q 426 372 406 414 q 387 455 376 492 q 365 528 363 557 q 363 554 362 550 q 362 547 362 543 q 361 539 361 536 q 361 532 361 529 q 361 521 362 514 q 362 506 363 498 q 367 467 378 437 q 388 407 401 380 l 554 55 l 561 80 z m 272 91 l 126 553 l 109 553 l 257 57 l 272 91 z m 439 597 q 433 606 426 611 q 420 616 412 616 q 401 615 396 605 q 391 595 391 580 q 391 569 392 557 q 394 545 397 532 q 399 522 402 512 q 404 503 407 494 q 413 475 418 462 q 422 448 423 447 q 424 448 424 450 q 425 451 426 453 q 433 468 439 485 q 445 502 449 519 q 450 526 451 534 q 452 541 452 548 q 452 561 449 573 q 446 585 439 597 z"},"A":{"x_min":0,"x_max":567,"ha":567,"o":"m 555 0 l 340 0 l 340 29 l 413 29 l 413 116 q 413 154 404 190 q 394 225 367 258 q 348 281 324 298 q 299 314 272 323 q 261 288 251 252 q 241 217 232 181 q 218 130 204 79 q 189 28 170 -21 q 187 -27 204 -30 q 221 -33 238 -33 l 238 -62 q 228 -61 218 -60 q 208 -59 199 -58 q 189 -56 179 -54 q 169 -51 159 -48 q 129 -118 84 -162 q 39 -206 -30 -206 q -77 -206 -116 -177 q -154 -148 -154 -98 q -154 -62 -130 -37 q -105 -12 -72 -12 q -64 -12 -56 -14 q -47 -16 -39 -20 q -38 -20 -38 -20 q -37 -21 -36 -21 q -25 -27 -16 -40 q -6 -52 -4 -65 q -4 -66 -4 -67 q -4 -68 -4 -69 q -5 -76 -8 -82 q -10 -88 -17 -93 q -22 -96 -26 -98 q -31 -99 -35 -99 q -49 -99 -62 -86 q -74 -74 -79 -59 q -79 -56 -80 -53 q -80 -50 -80 -47 q -80 -46 -80 -46 q -80 -45 -80 -45 q -80 -44 -80 -44 q -80 -43 -80 -42 q -101 -46 -113 -62 q -125 -77 -125 -98 q -125 -134 -98 -154 q -71 -174 -38 -177 q -36 -177 -34 -177 q -32 -177 -30 -177 q 28 -177 66 -138 q 105 -98 133 -36 q 77 -8 42 46 q 6 99 6 162 q 6 167 6 172 q 6 176 7 180 q 15 263 75 312 q 135 362 212 362 q 217 362 222 362 q 227 362 233 361 q 238 361 243 360 q 248 359 253 358 q 257 371 262 384 q 267 397 273 411 q 300 475 346 528 q 392 582 468 582 l 545 582 l 545 553 l 486 553 l 486 29 l 555 29 l 555 0 z m 244 330 q 236 332 228 332 q 219 333 211 333 q 145 333 94 291 q 42 249 36 178 q 36 176 36 174 q 36 172 36 170 q 35 167 35 165 q 35 163 35 161 q 36 107 66 61 q 96 15 144 -9 q 163 39 178 90 q 192 140 205 191 q 206 195 207 198 q 208 202 209 206 q 217 237 226 268 q 234 299 244 330 z m 458 29 l 458 552 q 454 552 450 552 q 445 551 441 550 l 441 29 l 458 29 z m 412 244 l 412 541 q 366 520 335 469 q 304 418 281 350 q 322 337 356 310 q 390 282 412 244 z"},"f":{"x_min":0,"x_max":141,"ha":141,"o":"m 151 562 l 131 541 q 126 546 119 550 q 112 553 104 553 q 103 553 102 553 q 102 553 101 553 l 102 225 l 136 225 l 136 196 l 102 196 l 102 -225 l 33 -225 l 33 196 l 0 196 l 0 225 l 33 225 q 33 297 33 369 q 33 441 33 512 q 33 544 55 563 q 77 582 103 582 q 116 582 128 578 q 141 573 151 562 z m 72 -192 l 72 540 q 67 535 64 528 q 61 520 61 512 l 61 -192 l 72 -192 z"},"Q":{"x_min":0,"x_max":566,"ha":566,"o":"m 872 -74 q 872 -75 872 -78 q 872 -80 872 -83 q 872 -153 835 -183 q 798 -213 744 -213 q 723 -213 701 -210 q 679 -206 656 -198 q 603 -181 554 -154 q 506 -128 458 -100 q 457 -100 456 -99 q 455 -98 453 -97 q 418 -76 382 -56 q 346 -36 308 -19 q 301 -16 294 -14 q 286 -12 278 -11 q 274 -11 270 -10 q 267 -10 263 -10 q 262 -10 262 -10 q 261 -10 260 -10 q 214 -11 176 -42 q 138 -72 138 -120 q 138 -120 138 -120 q 138 -121 138 -122 q 138 -123 138 -124 q 138 -124 138 -124 l 110 -127 q 110 -124 110 -122 q 110 -119 110 -117 q 110 -76 136 -43 q 161 -10 198 5 q 107 34 54 116 q 2 198 2 292 q 2 405 76 498 q 151 591 272 591 q 393 591 468 498 q 543 406 543 292 q 543 195 488 111 q 432 27 335 1 q 366 -10 396 -24 q 426 -37 455 -52 q 457 -52 458 -52 q 459 -53 460 -54 q 504 -74 548 -94 q 592 -114 638 -128 q 665 -136 690 -141 q 716 -146 738 -146 q 775 -146 803 -128 q 831 -111 844 -69 l 872 -74 z m 829 -148 q 810 -163 787 -170 q 764 -176 739 -176 q 735 -176 731 -176 q 727 -176 723 -175 q 697 -174 672 -168 q 646 -161 623 -154 q 621 -153 619 -152 q 617 -152 615 -151 q 619 -153 624 -155 q 629 -157 634 -159 q 651 -166 672 -172 q 692 -178 713 -182 q 722 -183 731 -184 q 740 -185 749 -185 q 774 -185 795 -176 q 816 -168 829 -147 z m 467 292 q 467 312 464 334 q 462 355 456 377 q 439 447 394 505 q 348 563 272 563 q 197 563 152 505 q 106 447 89 377 q 83 355 80 334 q 78 312 78 292 q 78 272 81 250 q 84 228 89 206 q 107 137 152 80 q 197 22 272 22 q 347 22 392 80 q 438 137 456 206 q 461 228 464 250 q 467 272 467 292 z m 99 104 q 74 145 62 194 q 49 243 49 293 q 49 343 62 391 q 74 439 99 480 q 65 441 48 392 q 30 343 30 292 q 30 241 48 192 q 65 143 99 104 z m 446 104 q 481 144 498 193 q 514 242 514 293 q 514 296 514 299 q 514 302 514 305 q 512 352 495 398 q 478 443 446 480 q 471 439 484 390 q 496 341 495 291 q 495 242 483 194 q 471 145 446 104 z"},"w":{"x_min":0,"x_max":346,"ha":346,"o":"m 300 211 q 314 194 322 170 q 331 145 332 119 q 332 117 332 115 q 332 113 332 111 q 332 86 324 62 q 316 39 297 23 q 284 12 266 6 q 248 0 228 0 q 204 0 183 10 q 162 19 151 39 q 137 23 115 12 q 93 0 70 0 q 44 0 22 17 q 0 34 0 62 l 0 225 l 69 225 l 69 47 q 69 40 74 36 q 80 33 87 33 q 88 33 89 33 q 90 33 91 33 q 91 33 92 34 q 93 34 94 34 q 98 34 102 36 q 107 39 112 42 q 117 46 121 50 q 125 54 129 58 q 134 64 137 68 q 140 73 142 77 q 142 78 142 79 q 142 80 142 81 q 141 82 141 82 q 141 83 141 84 l 141 225 l 211 225 l 211 53 q 211 42 217 36 q 223 30 235 30 l 238 30 q 252 31 262 35 q 272 39 279 45 q 293 57 298 74 q 304 92 303 111 q 303 123 301 135 q 299 147 296 157 q 294 156 292 154 q 290 153 288 153 q 285 152 283 152 q 281 151 279 151 q 266 152 254 162 q 243 172 239 184 q 239 185 238 186 q 238 186 238 187 q 238 188 238 190 q 237 191 237 192 q 237 193 237 194 q 237 196 237 197 q 237 210 244 220 q 252 229 265 230 q 276 230 284 224 q 293 219 300 211 z m 41 38 q 41 39 41 40 q 41 41 41 43 q 40 44 40 45 q 40 46 40 47 l 40 196 l 28 196 l 28 62 q 28 55 32 49 q 36 43 41 38 z m 183 44 q 183 46 183 48 q 183 51 183 53 l 183 196 l 170 196 l 170 84 q 170 70 174 60 q 177 50 183 44 z"},"-":{"x_min":0,"x_max":150,"ha":150,"o":"m 143 207 l 7 207 l 7 293 l 143 293 l 143 207 z m 114 236 l 114 264 l 36 264 l 36 236 l 114 236 z"},"E":{"x_min":0,"x_max":392,"ha":392,"o":"m 384 135 q 368 68 314 34 q 261 0 199 0 q 162 0 126 12 q 90 25 61 50 q 35 73 21 100 q 7 128 5 156 q 4 159 4 163 q 4 167 4 170 q 4 221 36 266 q 68 310 123 331 q 88 347 64 378 q 39 408 39 448 q 39 507 84 542 q 130 578 184 581 q 187 581 190 581 q 192 581 195 581 q 239 581 276 558 q 314 534 324 481 q 325 478 325 475 q 325 472 325 469 q 325 454 316 446 q 308 438 296 438 q 292 438 288 439 q 285 440 281 442 q 275 444 270 448 q 265 452 261 458 q 258 463 256 469 q 253 475 252 482 q 251 484 251 486 q 251 488 251 490 q 251 501 257 510 q 263 518 277 519 q 263 536 243 544 q 223 552 201 553 q 199 553 198 553 q 196 553 194 553 q 153 552 132 522 q 112 492 112 455 q 112 453 112 451 q 112 449 112 447 q 113 427 120 408 q 128 390 142 376 q 152 366 167 357 q 182 348 198 345 q 202 345 206 344 q 210 344 214 344 q 216 344 218 344 q 219 344 220 344 l 281 344 l 281 315 q 276 315 271 315 q 266 315 262 315 q 223 316 188 311 q 154 306 122 273 q 103 254 93 227 q 83 200 82 173 q 82 170 82 168 q 82 166 82 164 q 82 113 112 71 q 141 29 199 29 q 255 29 298 57 q 342 85 356 142 l 384 135 z m 92 283 q 64 262 48 232 q 33 203 33 171 q 33 167 34 163 q 34 159 34 155 q 37 135 46 116 q 56 96 73 78 q 63 98 58 121 q 53 144 53 167 q 53 199 63 229 q 73 259 92 283 z m 106 375 q 96 389 90 406 q 85 422 84 439 q 83 443 83 446 q 83 450 83 453 q 83 468 86 483 q 89 498 94 511 q 84 500 78 488 q 72 477 70 465 q 69 461 68 457 q 68 453 68 449 q 69 429 78 410 q 88 390 106 375 z"},"s":{"x_min":0,"x_max":193,"ha":193,"o":"m 178 63 q 178 39 160 24 q 141 9 119 3 q 112 2 106 1 q 100 0 94 0 l 94 1 q 93 1 92 1 q 92 1 91 1 q 84 1 77 2 q 70 3 63 5 q 43 10 26 22 q 9 33 4 52 q 4 54 4 55 q 3 56 3 58 q 3 59 3 60 q 3 62 3 63 q 3 76 10 86 q 18 95 32 96 q 33 96 34 96 q 34 96 35 96 q 52 96 65 82 q 78 67 79 50 q 79 49 79 48 q 79 48 79 47 q 79 45 79 43 q 79 41 78 39 q 78 37 77 35 q 76 33 75 31 q 79 30 84 30 q 88 29 92 30 q 94 30 96 30 q 97 30 98 30 q 103 31 108 32 q 112 33 115 35 q 117 36 118 38 q 119 39 120 40 q 120 41 120 42 q 121 44 121 45 q 121 49 114 56 q 107 63 98 71 q 96 72 94 74 q 93 75 91 76 q 83 83 76 88 q 68 94 64 97 q 60 100 56 103 q 53 106 49 108 q 33 121 21 134 q 9 148 9 165 q 9 188 27 202 q 45 217 67 222 q 73 224 78 224 q 84 225 89 225 q 94 225 99 224 q 104 224 109 224 q 128 221 145 211 q 162 201 167 181 q 167 180 168 178 q 168 177 168 176 q 168 175 168 174 q 168 172 168 171 q 168 158 161 148 q 154 139 140 138 q 140 138 140 138 q 140 138 140 138 q 139 138 139 138 q 139 138 139 138 q 122 138 110 152 q 97 166 96 182 q 96 183 96 184 q 96 184 96 185 q 96 186 96 188 q 96 189 97 190 q 97 191 98 192 q 98 194 98 195 q 97 195 96 195 q 95 195 94 196 q 93 196 92 196 q 91 196 89 196 q 88 196 86 196 q 85 196 83 196 q 76 195 70 192 q 64 188 64 182 q 64 179 71 172 q 78 166 87 159 q 88 157 90 156 q 91 155 93 154 q 100 148 107 143 q 114 138 118 135 q 141 119 160 102 q 178 86 178 63 z m 148 57 q 146 63 142 69 q 137 75 131 80 q 127 84 122 88 q 116 93 111 97 q 107 100 103 103 q 99 106 96 109 q 92 111 88 114 q 84 117 80 120 q 77 123 72 126 q 66 130 61 134 q 55 139 49 145 q 43 151 40 156 q 39 159 38 161 q 38 163 38 165 q 38 166 38 166 q 38 167 38 168 q 43 158 51 151 q 59 144 69 138 q 69 137 70 136 q 71 136 71 136 q 75 133 78 131 q 82 129 85 126 q 90 122 98 117 q 105 112 113 106 q 122 99 130 92 q 139 84 144 77 q 146 74 148 70 q 149 66 149 63 q 149 62 149 60 q 149 59 148 57 z"},">":{"x_min":0,"x_max":583,"ha":583,"o":"m 396 299 l 54 153 l 54 216 l 325 328 l 54 439 l 54 502 l 396 358 z"},"l":{"x_min":0,"x_max":133,"ha":133,"o":"m 120 562 l 99 541 q 95 546 88 550 q 81 553 73 553 q 72 553 72 553 q 71 553 70 553 l 70 39 q 70 37 72 36 q 73 34 75 34 q 76 34 76 34 q 77 35 77 35 q 83 40 86 46 q 90 53 90 60 l 119 60 q 119 35 102 18 q 84 1 60 1 q 36 1 18 18 q 1 35 1 60 l 1 512 q 1 541 22 562 q 43 582 71 582 q 85 582 98 577 q 110 572 120 562 z m 41 37 q 41 37 41 38 q 41 38 41 39 l 41 540 q 36 535 33 528 q 30 520 30 512 l 30 60 q 30 53 33 47 q 36 41 41 37 z"},"8":{"x_min":0,"x_max":359,"ha":359,"o":"m 286 46 q 264 25 236 14 q 208 2 179 0 q 177 0 174 0 q 171 0 168 0 q 136 0 106 12 q 75 24 51 46 q 26 70 14 99 q 1 128 2 158 q 2 205 30 246 q 57 286 106 305 q 80 321 66 346 q 53 371 53 398 q 53 419 62 440 q 70 460 87 476 q 104 492 126 500 q 147 508 169 507 q 171 507 174 507 q 176 507 179 507 q 198 505 216 498 q 235 490 250 476 q 263 463 271 448 q 279 432 282 416 q 283 412 284 408 q 284 403 284 398 q 284 371 270 346 q 257 321 231 305 q 281 286 308 245 q 335 204 335 157 q 335 127 324 98 q 312 70 286 46 z m 307 158 q 307 214 265 251 q 223 288 168 288 q 135 288 114 262 q 94 235 86 203 q 83 191 82 180 q 80 168 80 158 q 80 148 82 136 q 83 124 86 112 q 95 81 115 55 q 135 29 168 29 q 222 29 264 66 q 307 102 307 158 z m 74 64 q 64 82 58 103 q 53 124 51 145 q 51 148 51 152 q 51 155 51 159 q 51 184 57 208 q 63 231 74 252 q 52 233 41 208 q 30 183 31 157 q 31 132 42 108 q 52 83 74 64 z m 255 398 q 255 433 229 456 q 203 479 168 479 q 154 479 145 465 q 136 451 131 434 q 129 424 128 414 q 126 404 126 398 q 126 391 127 382 q 128 372 131 362 q 136 344 145 330 q 154 316 168 316 q 203 316 229 340 q 255 363 255 398 z m 107 340 q 103 350 100 361 q 98 372 97 384 q 97 388 97 392 q 97 395 97 399 q 97 403 97 406 q 97 410 98 413 q 98 424 100 434 q 103 445 107 455 q 94 443 88 428 q 81 413 82 397 q 82 381 88 366 q 94 352 107 340 z"},"\\":{"x_min":0,"x_max":272,"ha":272,"o":"m 9 663 l 43 663 l 179 66 l 146 66 l 9 663 z"},"e":{"x_min":0,"x_max":221,"ha":221,"o":"m 213 45 q 195 23 170 12 q 145 0 119 0 q 116 0 113 0 q 110 0 107 1 q 89 3 72 11 q 54 19 39 33 q 21 50 12 70 q 4 91 4 112 q 5 156 38 190 q 70 224 122 225 q 123 225 124 225 q 124 225 125 225 q 151 224 172 212 q 194 200 198 172 q 198 171 198 170 q 198 169 198 168 q 198 167 198 166 q 198 165 198 164 q 198 134 176 116 q 153 97 125 87 q 117 84 109 82 q 101 79 94 77 l 91 76 q 92 72 94 68 q 95 64 96 60 q 101 48 108 38 q 116 29 129 30 q 130 30 130 30 q 131 30 132 30 q 149 32 164 41 q 180 50 191 63 l 213 45 z m 74 39 q 66 51 62 68 q 57 85 56 102 q 56 104 56 106 q 56 108 56 110 q 56 112 56 114 q 56 116 56 118 q 57 137 62 156 q 67 174 74 187 q 55 175 46 155 q 36 135 36 112 q 36 90 46 70 q 55 50 74 39 z m 169 169 q 168 181 159 187 q 150 193 140 194 q 138 195 136 195 q 133 195 131 195 q 115 195 105 179 q 95 163 91 144 q 88 134 87 124 q 86 115 86 108 q 86 107 86 106 q 86 106 86 105 q 93 107 102 110 q 111 112 120 116 q 139 123 154 135 q 169 147 169 165 q 169 166 169 167 q 169 168 169 169 z"},"b":{"x_min":0,"x_max":248,"ha":248,"o":"m 234 113 q 234 58 197 30 q 160 1 116 1 q 73 2 37 30 q 1 58 1 115 l 1 512 q 1 544 23 563 q 45 582 71 582 q 84 582 96 578 q 109 573 119 562 l 99 541 q 93 547 86 550 q 80 553 72 553 q 71 553 70 553 q 70 553 69 553 l 69 215 q 72 216 74 217 q 76 218 79 219 q 84 220 89 222 q 94 223 99 223 q 100 224 100 224 q 101 224 101 224 q 106 225 110 225 q 113 225 117 225 q 164 225 199 192 q 234 160 234 113 z m 135 48 q 144 62 148 79 q 153 96 153 113 q 153 130 148 147 q 144 164 135 177 q 130 185 124 190 q 117 195 108 195 q 108 195 108 195 q 107 195 107 195 q 107 195 106 195 q 106 195 106 195 q 96 194 86 190 q 77 187 69 182 l 69 71 q 69 58 77 47 q 85 36 98 31 q 99 31 100 31 q 101 31 102 31 q 103 30 104 30 q 105 30 106 30 q 107 30 108 30 q 108 30 108 30 q 117 30 124 36 q 130 41 135 48 z m 165 39 q 183 50 192 68 q 202 87 203 108 q 203 109 203 110 q 203 112 203 113 q 203 135 194 155 q 184 175 164 187 q 171 175 176 156 q 180 138 182 118 q 182 115 182 112 q 182 109 182 106 q 182 87 178 69 q 174 51 165 39 z m 40 73 q 40 74 40 74 q 40 75 40 75 l 40 538 q 35 533 32 526 q 29 518 29 510 l 29 96 q 29 89 32 83 q 36 77 40 73 z"},"%":{"x_min":0,"x_max":889,"ha":889,"o":"m 58 449 q 58 493 80 524 q 103 555 145 555 q 184 555 209 528 q 234 500 234 446 q 234 394 208 366 q 183 337 145 337 q 108 337 83 365 q 58 393 58 449 z m 146 520 q 127 520 114 504 q 102 488 102 444 q 102 404 115 388 q 128 372 146 372 q 165 372 178 388 q 190 405 190 448 q 190 488 178 504 q 165 520 146 520 z m 146 121 l 372 555 l 413 555 l 188 121 z m 325 233 q 325 277 347 308 q 369 339 412 339 q 450 339 476 311 q 501 283 501 230 q 501 177 476 149 q 450 121 412 121 q 375 121 350 149 q 325 177 325 233 z m 413 304 q 394 304 382 288 q 369 271 369 228 q 369 188 382 172 q 394 156 413 156 q 432 156 444 172 q 457 188 457 232 q 457 271 444 288 q 432 304 413 304 z"},"m":{"x_min":0,"x_max":427,"ha":427,"o":"m 415 59 q 415 34 398 17 q 380 0 356 0 q 332 0 314 17 q 297 34 297 59 l 297 178 q 297 186 292 190 q 286 193 279 193 q 278 193 276 193 q 275 193 273 192 q 273 193 269 190 q 265 188 259 185 q 259 184 258 184 q 258 184 258 184 q 253 181 250 178 q 246 175 246 175 q 247 173 248 170 q 248 167 248 163 l 248 0 l 178 0 l 178 178 q 178 184 176 188 q 173 193 168 193 q 167 193 166 193 q 166 193 164 192 q 150 187 138 174 q 126 162 121 146 l 121 0 l 53 0 l 53 187 q 53 187 53 188 q 53 188 52 189 q 52 190 50 191 q 49 192 47 192 q 47 192 46 192 q 46 192 46 192 q 46 191 46 191 q 45 191 45 191 q 39 187 36 180 q 32 174 32 166 l 4 166 q 4 194 23 210 q 42 225 64 225 q 79 225 93 217 q 107 209 115 192 q 129 206 148 216 q 166 225 185 225 q 199 225 212 220 q 224 214 234 202 q 245 211 258 217 q 272 223 287 224 q 289 225 292 225 q 294 225 296 225 q 322 225 344 208 q 366 192 366 163 l 366 38 q 366 36 368 34 q 369 33 371 33 q 372 33 372 34 q 373 34 373 34 q 379 39 382 45 q 386 51 386 59 l 415 59 z m 92 29 l 92 166 q 92 173 89 179 q 86 185 81 189 q 81 189 81 188 q 81 188 81 188 q 81 188 81 188 q 81 187 81 187 l 81 29 l 92 29 z m 219 30 q 219 47 219 64 q 219 80 219 97 q 219 113 219 130 q 219 147 219 163 q 219 171 216 178 q 212 185 206 189 q 207 187 207 184 q 207 181 207 178 l 207 30 l 219 30 z m 337 36 q 337 36 337 36 q 337 37 337 38 l 337 163 q 337 171 334 177 q 330 183 325 187 q 326 185 326 182 q 326 180 326 178 q 326 163 326 148 q 326 134 326 119 q 326 104 326 89 q 326 74 326 59 q 326 52 329 46 q 332 40 337 36 z"},"#":{"x_min":0,"x_max":556,"ha":556,"o":"m 37 105 l 65 243 l 10 243 l 10 291 l 75 291 l 98 408 l 10 408 l 10 456 l 108 456 l 136 595 l 185 595 l 157 456 l 259 456 l 287 595 l 335 595 l 307 456 l 363 456 l 363 408 l 298 408 l 273 291 l 363 291 l 363 243 l 264 243 l 236 105 l 187 105 l 215 243 l 113 243 l 85 105 z m 123 291 l 225 291 l 249 408 l 147 408 z"},",":{"x_min":0,"x_max":98,"ha":98,"o":"m 84 10 l 42 -46 l 19 -29 l 36 -6 q 34 -5 32 -4 q 31 -3 29 -2 q 27 -1 26 0 q 24 0 22 1 q 14 8 10 18 q 5 27 5 37 q 5 44 7 50 q 9 57 13 63 q 20 72 30 76 q 39 81 49 81 q 51 81 54 81 q 56 81 58 80 q 63 79 68 77 q 72 75 76 72 q 84 65 88 56 q 93 47 93 36 q 93 29 91 22 q 89 16 84 10 z m 61 27 q 63 29 64 31 q 64 33 65 36 q 65 40 63 44 q 61 47 58 49 q 57 50 56 50 q 54 51 53 51 q 52 52 50 52 q 49 52 48 52 q 47 52 46 52 q 45 52 44 51 q 42 51 40 50 q 38 48 36 46 q 35 44 34 42 q 33 39 33 37 q 33 33 34 30 q 36 26 39 24 q 40 23 42 22 q 43 22 44 22 q 45 21 46 21 q 48 21 49 21 q 53 21 56 22 q 59 24 61 27 z"},"n":{"x_min":0,"x_max":322,"ha":322,"o":"m 309 60 q 309 35 292 18 q 274 1 250 1 q 226 1 208 18 q 191 35 191 60 l 191 178 q 191 186 186 190 q 180 193 173 193 q 172 193 170 193 q 169 193 167 192 q 166 193 162 190 q 158 188 154 185 q 153 185 152 184 q 152 184 151 183 q 147 181 144 178 q 141 176 140 175 q 132 168 126 159 q 120 150 118 140 l 118 0 l 49 1 l 49 187 q 49 187 49 188 q 49 188 49 189 q 48 189 47 190 q 46 191 46 192 q 45 192 44 192 q 44 192 44 192 q 44 192 44 192 q 43 192 43 192 q 43 191 42 191 q 42 191 42 191 q 36 187 32 180 q 29 174 29 166 l 0 166 q 0 193 18 208 q 36 224 58 225 q 59 225 60 225 q 60 225 61 225 q 77 225 92 216 q 106 208 113 189 q 122 199 133 206 q 144 214 156 218 q 164 221 173 223 q 182 225 191 225 q 204 225 216 220 q 229 216 239 208 q 249 200 255 188 q 261 177 261 163 l 261 39 q 261 39 261 38 q 261 38 261 38 q 261 36 262 35 q 262 34 265 34 q 269 34 272 38 q 276 43 277 48 q 279 52 280 55 q 280 58 280 60 l 309 60 z m 89 29 l 89 142 q 89 146 89 150 q 89 154 89 158 q 89 167 88 175 q 86 183 78 189 q 78 189 78 188 q 78 188 78 188 q 78 188 78 188 q 78 187 78 187 l 78 29 l 89 29 z m 231 37 q 231 37 231 38 q 231 38 231 39 l 231 163 q 231 171 228 177 q 224 183 219 187 q 220 185 220 182 q 220 180 220 178 l 220 60 q 220 53 223 47 q 226 41 231 37 z"},"h":{"x_min":0,"x_max":272,"ha":272,"o":"m 261 60 q 261 31 242 16 q 224 2 201 2 q 179 2 161 16 q 143 31 143 60 l 143 178 q 143 186 138 190 q 132 193 125 193 q 124 193 122 193 q 121 193 119 192 q 118 193 114 190 q 110 188 105 185 q 104 184 104 184 q 104 184 103 183 q 99 181 96 178 q 92 176 91 175 q 81 166 75 154 q 69 143 69 131 l 69 0 l 0 0 l 0 512 q 0 544 22 563 q 44 582 71 582 q 84 582 96 578 q 109 573 119 562 l 98 541 q 93 546 86 550 q 80 553 72 553 q 71 553 70 553 q 70 553 69 553 l 69 193 q 83 207 102 216 q 122 225 142 225 q 143 225 144 225 q 144 225 145 225 q 170 224 192 208 q 213 191 213 163 l 213 36 q 214 35 214 35 q 215 35 215 34 q 219 34 222 38 q 225 42 228 47 q 230 52 231 56 q 232 59 232 60 l 261 60 z m 40 29 l 40 540 q 35 535 32 528 q 29 520 29 512 l 29 29 l 40 29 z m 183 37 l 183 163 q 183 171 180 177 q 176 183 171 187 q 172 185 172 182 q 172 180 172 178 l 172 60 q 172 53 175 47 q 178 41 183 37 z"},"z":{"x_min":0,"x_max":203,"ha":203,"o":"m 193 62 q 193 60 192 58 q 192 55 191 53 q 189 31 172 16 q 156 1 133 1 q 121 1 110 4 q 100 8 89 11 q 88 12 88 12 q 87 12 87 12 q 79 15 72 18 q 64 20 56 21 q 53 22 50 22 q 48 22 46 22 q 40 22 36 20 q 33 19 30 16 q 28 14 26 12 q 24 9 21 6 l -2 24 l -1 24 q 11 39 25 56 q 39 74 54 92 q 54 92 54 93 q 55 94 56 94 q 67 107 77 120 q 87 132 97 144 q 94 146 91 148 q 88 149 86 151 q 83 152 80 154 q 77 156 74 158 q 72 159 70 160 q 69 162 67 163 q 62 167 57 170 q 52 172 48 173 q 47 173 46 173 q 46 173 45 174 q 44 174 44 174 q 43 174 42 174 q 35 173 30 168 q 25 164 23 157 l -5 164 q -2 176 2 187 q 5 198 13 207 q 19 214 26 218 q 32 221 39 222 q 42 223 46 224 q 49 224 52 224 q 58 224 64 223 q 70 222 76 221 q 81 219 87 217 q 93 215 99 213 q 101 212 103 212 q 105 211 106 211 q 112 209 118 208 q 123 206 127 205 q 129 204 132 204 q 134 204 136 204 q 141 204 144 206 q 148 207 151 211 q 153 212 155 214 q 157 217 159 220 l 181 201 l 86 86 q 90 84 94 82 q 98 79 102 76 q 104 75 106 74 q 108 72 110 71 q 113 70 116 68 q 118 66 121 64 q 127 60 134 56 q 140 53 146 53 q 147 53 148 53 q 150 53 151 54 q 152 54 154 54 q 155 55 156 56 q 159 58 162 62 q 164 66 165 70 l 193 62 z m 123 31 q 117 34 111 38 q 105 41 100 45 q 99 46 98 46 q 98 46 98 47 q 91 52 84 56 q 76 61 68 64 l 57 50 q 66 49 74 46 q 82 44 90 41 q 91 41 92 40 q 93 40 95 40 q 102 37 109 35 q 116 33 123 31 z m 123 176 q 115 177 107 180 q 99 183 91 186 q 90 186 90 186 q 89 186 89 186 q 85 188 80 190 q 76 191 72 192 q 76 190 80 187 q 85 184 89 181 q 95 177 102 173 q 108 169 115 166 l 123 176 z"},"B":{"x_min":0,"x_max":511,"ha":511,"o":"m 455 441 q 455 398 430 371 q 404 344 366 330 q 426 313 462 266 q 497 219 497 165 q 497 161 497 156 q 497 152 496 148 q 493 122 480 97 q 468 72 445 49 q 413 18 376 9 q 340 0 298 0 q 244 0 190 0 q 137 0 84 0 l 84 29 l 156 29 l 156 158 q 88 182 46 242 q 5 303 5 376 q 5 478 72 544 q 139 609 241 607 q 256 629 274 649 q 292 669 311 686 l 331 665 q 316 652 306 636 q 295 621 285 604 q 356 596 406 558 q 455 521 455 441 z m 384 69 q 403 91 412 116 q 421 142 421 168 q 421 222 386 266 q 351 310 289 310 q 274 310 260 310 q 245 310 231 310 l 231 174 q 260 174 288 183 q 317 192 341 209 l 358 186 q 330 167 298 156 q 265 145 231 145 l 230 29 q 236 29 242 29 q 248 29 253 29 q 259 28 264 28 q 270 28 276 28 q 306 28 334 35 q 361 42 384 69 z m 210 485 q 198 451 192 414 q 185 377 185 338 q 185 261 185 184 q 185 106 185 29 l 201 29 q 201 29 202 78 q 202 126 202 185 q 202 237 202 282 q 202 327 202 338 q 202 381 204 416 q 205 452 210 485 z m 419 271 q 435 249 442 222 q 450 196 450 169 q 450 140 441 112 q 432 84 414 61 q 441 82 454 110 q 468 139 468 169 q 468 171 468 174 q 468 176 468 178 q 466 204 454 228 q 442 252 419 271 z m 221 576 q 219 576 217 576 q 215 576 213 576 q 211 576 209 576 q 207 576 205 576 q 121 566 77 506 q 33 446 34 375 q 34 374 34 372 q 34 371 34 370 q 35 314 66 264 q 96 213 156 188 q 156 226 156 264 q 156 301 156 338 q 156 401 173 462 q 190 522 221 576 z m 374 451 q 374 502 344 531 q 314 560 267 570 q 241 515 236 458 q 231 400 231 340 q 291 340 332 362 q 374 384 374 451 z m 381 368 q 405 382 416 403 q 426 424 426 447 q 426 451 426 454 q 425 458 425 461 q 421 488 405 512 q 389 537 364 551 q 382 533 392 506 q 402 480 403 452 q 403 450 403 448 q 403 446 403 444 q 403 423 398 404 q 392 384 381 368 z"},"K":{"x_min":0,"x_max":783,"ha":783,"o":"m 772 122 q 772 72 736 36 q 700 0 650 0 q 613 0 580 18 q 546 36 524 67 q 484 126 444 184 q 404 243 363 301 q 362 299 361 292 q 360 284 360 275 q 360 274 360 273 q 360 272 360 271 q 360 266 360 262 q 360 257 361 253 q 361 248 361 244 q 361 240 361 238 q 361 233 361 228 q 361 224 360 219 q 355 131 302 58 q 248 -16 149 -16 q 91 -15 46 20 q 1 56 1 118 q 1 162 32 193 q 63 224 106 224 q 140 224 163 200 q 186 176 187 144 q 187 117 175 104 q 163 92 147 92 q 146 92 146 92 q 145 92 144 92 q 128 93 114 106 q 101 119 100 140 q 100 141 100 142 q 100 142 100 143 q 100 156 108 164 q 116 173 128 173 q 130 173 132 173 q 133 173 135 172 q 136 172 138 172 q 140 171 141 170 q 144 169 147 168 q 150 166 152 164 q 145 181 132 188 q 119 196 103 196 q 101 196 98 196 q 96 195 94 195 q 83 193 72 188 q 61 182 52 173 q 40 161 35 147 q 30 133 30 117 q 30 114 30 110 q 31 107 31 103 q 34 86 42 70 q 51 54 64 42 q 79 29 101 20 q 123 12 150 12 q 204 12 234 56 q 265 99 277 150 q 283 174 286 196 q 288 219 288 238 q 288 317 288 396 q 288 474 288 553 l 215 553 l 215 582 l 431 582 l 431 553 l 362 553 l 361 354 l 366 348 q 389 374 412 400 q 434 425 456 451 q 479 477 502 502 q 524 528 546 554 q 557 566 570 572 q 582 579 595 581 q 598 581 600 581 q 603 581 606 581 q 637 581 662 559 q 688 537 687 505 q 687 496 684 487 q 682 478 677 468 q 673 461 666 457 q 660 453 653 454 q 651 454 650 454 q 648 455 646 455 q 632 459 620 472 q 608 484 606 498 q 605 500 605 502 q 605 504 605 506 q 605 513 608 520 q 610 526 617 530 q 621 533 626 534 q 630 536 635 535 q 638 535 641 534 q 644 534 647 533 q 647 533 648 533 q 648 533 649 532 q 642 542 630 548 q 619 553 606 553 q 606 553 606 553 q 605 553 604 553 q 594 552 584 548 q 575 543 568 535 q 529 491 490 447 q 452 403 414 359 q 460 293 506 227 q 551 161 596 95 q 597 93 598 92 q 599 90 601 89 q 613 72 630 58 q 646 43 667 40 q 668 40 670 40 q 671 39 672 39 q 673 39 674 39 q 676 39 677 39 q 701 39 718 59 q 736 79 741 103 q 742 108 742 112 q 743 117 743 122 l 772 122 z m 613 35 q 601 44 591 55 q 581 66 573 78 q 551 110 528 142 q 506 175 484 207 q 461 239 439 272 q 417 304 394 336 l 383 323 q 424 263 466 203 q 507 143 548 84 q 560 67 577 54 q 594 41 613 35 z m 333 553 l 317 553 q 317 474 317 396 q 317 317 317 238 q 317 194 308 154 q 300 113 283 80 q 306 111 319 152 q 332 192 332 238 q 332 277 332 316 q 332 356 333 396 q 333 435 333 474 q 333 514 333 553 z"},"R":{"x_min":0,"x_max":563,"ha":563,"o":"m 725 -20 q 721 -67 686 -100 q 650 -132 603 -131 q 601 -131 598 -131 q 596 -131 594 -131 q 557 -128 525 -107 q 493 -86 474 -54 q 460 -29 445 -4 q 430 20 415 45 q 385 95 356 146 q 326 196 300 248 q 295 258 283 266 q 271 274 258 279 q 251 281 244 282 q 237 284 231 284 q 231 284 230 284 q 230 284 230 284 q 230 284 230 284 q 229 284 229 284 l 229 174 q 236 174 242 174 q 247 175 250 175 q 254 175 257 176 q 260 176 262 176 l 272 149 q 264 148 256 147 q 247 146 239 146 q 238 146 236 146 q 235 146 234 146 q 233 146 232 146 q 230 146 229 146 l 229 29 l 298 29 l 298 0 l 82 0 l 82 29 l 154 29 l 154 162 q 90 189 46 250 q 3 311 3 381 q 3 476 66 540 q 130 603 223 606 q 241 631 264 652 q 286 672 312 688 l 327 664 q 317 657 308 646 q 299 636 290 625 q 287 620 283 615 q 279 610 276 605 q 354 597 404 554 q 453 511 453 426 q 453 371 420 340 q 387 310 339 296 q 353 288 364 276 q 376 264 384 250 q 425 179 466 108 q 508 38 548 -32 q 549 -34 550 -36 q 552 -39 554 -41 q 565 -58 580 -72 q 595 -87 614 -92 q 618 -93 622 -94 q 625 -94 628 -94 q 653 -94 671 -74 q 689 -53 694 -29 q 695 -26 696 -23 q 696 -20 696 -17 l 725 -20 z m 560 -95 q 550 -84 540 -72 q 531 -60 524 -47 q 483 23 442 94 q 400 165 359 235 q 352 249 340 260 q 329 270 315 277 q 318 273 320 270 q 323 266 325 262 q 369 186 412 110 q 456 35 499 -40 q 510 -58 526 -72 q 541 -86 560 -94 z m 209 524 q 196 494 190 460 q 183 425 183 387 q 183 297 183 208 q 183 118 183 29 l 200 29 q 200 118 200 208 q 200 297 200 387 q 200 430 202 463 q 203 496 209 524 z m 203 576 q 118 565 75 509 q 32 453 33 385 q 33 383 33 382 q 33 380 33 379 q 35 324 65 274 q 95 223 154 194 l 154 346 q 154 407 164 466 q 173 525 203 576 z m 372 437 q 372 493 340 528 q 309 562 256 572 q 240 539 234 500 q 228 461 228 422 q 228 418 228 414 q 228 411 228 407 q 228 402 228 398 q 228 393 228 388 q 228 380 228 373 q 228 366 229 359 q 229 347 229 336 q 229 324 229 313 q 295 313 334 340 q 372 367 372 437 z m 377 343 q 403 358 414 382 q 425 406 425 432 q 425 434 425 436 q 425 439 425 442 q 422 476 404 506 q 386 537 357 553 q 377 533 388 504 q 400 475 402 443 q 402 440 402 436 q 402 433 402 430 q 402 405 396 382 q 390 360 377 343 z"},"T":{"x_min":0,"x_max":508,"ha":508,"o":"m 513 631 q 513 629 513 626 q 513 624 513 622 q 513 576 490 558 q 468 540 430 536 q 427 536 424 536 q 422 536 420 536 q 418 535 416 535 q 413 535 410 535 q 396 536 382 537 q 368 538 354 539 q 347 539 340 540 q 333 541 326 541 l 326 29 l 396 29 l 396 0 l 180 0 l 180 29 l 252 29 l 252 547 q 248 547 244 548 q 239 548 235 548 q 231 549 226 549 q 222 549 218 549 q 216 549 214 549 q 212 549 210 550 q 207 550 205 550 q 203 550 201 550 q 192 550 183 550 q 174 549 165 547 q 114 540 72 510 q 30 479 30 424 q 30 423 30 422 q 30 422 30 421 q 31 384 54 352 q 76 321 117 321 q 122 321 126 322 q 131 324 135 326 q 124 329 114 340 q 104 351 102 363 q 101 364 101 366 q 101 367 101 369 q 101 374 102 378 q 104 383 107 387 q 112 392 118 394 q 123 397 130 397 q 132 397 134 396 q 137 396 139 395 q 144 394 148 392 q 153 390 157 386 q 167 378 172 368 q 176 358 176 346 q 176 326 164 312 q 151 299 131 294 q 127 293 124 292 q 120 292 115 292 q 113 292 111 292 q 109 292 107 293 q 87 295 68 306 q 48 316 34 331 q 19 348 12 368 q 4 389 2 410 q 2 413 2 416 q 2 418 2 421 q 2 428 2 434 q 3 440 4 446 q 14 508 64 543 q 114 578 172 588 q 184 590 196 591 q 208 592 219 592 q 250 592 281 592 q 312 592 343 591 q 357 590 370 590 q 383 589 396 589 q 406 589 415 590 q 424 590 432 591 q 455 594 470 606 q 484 618 484 644 q 484 647 484 650 q 484 654 483 658 l 512 662 q 512 659 512 656 q 513 654 513 652 q 513 650 513 648 q 513 645 513 643 q 513 640 513 637 q 513 634 513 631 z m 298 29 l 298 544 q 296 544 294 544 q 292 544 290 545 q 287 545 285 545 q 283 545 281 545 l 281 29 l 298 29 z"},"P":{"x_min":0,"x_max":485,"ha":485,"o":"m 473 415 q 473 333 418 295 q 363 257 292 257 q 285 257 278 258 q 272 258 266 258 q 259 259 252 260 q 246 261 239 262 l 239 174 q 263 174 286 180 q 310 186 331 198 l 345 173 q 321 160 294 152 q 267 145 239 145 l 239 29 l 308 29 l 308 0 l 92 0 l 92 29 l 164 29 l 164 157 q 95 181 49 241 q 3 301 3 376 q 3 474 70 540 q 136 606 234 607 q 252 631 274 652 q 297 672 322 688 l 337 664 q 327 657 317 646 q 307 634 299 622 q 295 618 292 613 q 289 608 286 604 q 371 596 422 550 q 473 505 473 415 z m 219 521 q 206 490 200 455 q 194 420 194 382 q 194 294 194 206 q 194 117 194 29 l 210 29 q 210 117 210 206 q 210 294 210 382 q 210 425 212 458 q 213 492 219 521 z m 214 577 q 126 568 80 508 q 33 448 33 377 q 33 319 65 266 q 97 214 164 188 l 164 337 q 164 400 174 462 q 183 523 214 577 z m 388 379 q 390 391 392 402 q 393 414 393 425 q 393 481 362 522 q 331 563 267 573 q 248 536 242 492 q 237 447 237 401 q 237 387 238 374 q 238 360 238 346 q 238 333 238 320 q 239 306 239 294 q 249 293 258 292 q 268 291 277 291 q 318 291 348 310 q 378 330 388 379 z m 388 309 q 417 328 431 358 q 445 388 445 421 q 445 424 445 426 q 445 429 445 431 q 442 466 425 498 q 408 531 377 548 q 399 525 410 490 q 421 456 421 419 q 421 388 413 360 q 405 331 388 309 z"},"|":{"x_min":0,"x_max":72,"ha":72,"o":"m 68 -300 l 13 -300 l 13 696 l 68 696 l 68 -300 z"},"t":{"x_min":0,"x_max":160,"ha":160,"o":"m 147 60 q 147 35 130 18 q 112 1 88 1 q 64 1 46 18 q 29 35 29 60 l 29 196 l 1 196 l 1 225 l 29 225 l 29 393 l 98 393 l 98 225 l 144 225 l 144 196 l 98 196 q 98 177 98 157 q 98 137 98 118 q 98 98 98 78 q 98 59 98 39 q 98 38 99 36 q 100 35 102 35 q 103 34 104 34 q 104 34 105 35 q 111 39 114 46 q 118 53 118 60 l 147 60 z m 69 37 q 69 37 69 38 q 69 38 69 39 l 69 364 l 58 364 q 58 326 58 288 q 58 250 58 212 q 58 174 58 136 q 58 98 58 60 q 58 53 61 47 q 64 41 69 37 z"},"M":{"x_min":0,"x_max":701,"ha":701,"o":"m 685 0 l 469 0 l 469 29 l 542 29 l 542 535 l 354 256 q 368 231 380 199 q 392 167 398 134 q 400 123 401 112 q 402 102 402 92 q 402 77 400 63 q 397 49 392 35 q 384 12 366 0 q 348 -12 328 -14 q 327 -14 326 -14 q 324 -14 323 -14 q 307 -14 292 -7 q 276 0 265 16 q 253 32 248 49 q 243 66 243 84 q 243 89 244 94 q 244 99 244 104 q 249 135 263 164 q 277 193 293 217 l 101 523 l 101 29 l 170 29 l 170 0 l 1 0 l 1 29 l 72 29 l 72 553 l 1 553 l 1 582 l 152 582 l 338 284 l 539 582 l 685 582 l 685 553 l 616 553 l 616 29 l 685 29 l 685 0 z m 352 32 q 354 38 356 46 q 357 53 357 60 q 357 70 355 82 q 353 93 349 104 q 345 118 340 132 q 334 145 328 157 q 323 167 318 175 q 314 183 310 190 q 299 174 289 153 q 279 132 275 111 q 274 104 273 98 q 272 91 272 84 q 272 71 276 58 q 280 44 288 33 q 294 25 304 20 q 315 14 326 14 q 334 14 341 18 q 348 22 352 32 z m 587 29 l 587 553 l 570 553 l 570 29 l 587 29 z m 367 138 q 364 153 359 169 q 354 185 348 202 q 341 218 333 234 q 325 250 316 265 l 136 553 l 116 553 q 169 469 222 385 q 274 301 327 218 q 340 197 350 177 q 360 157 367 138 z"},"g":{"x_min":0,"x_max":232,"ha":232,"o":"m 216 -154 q 216 -185 194 -204 q 172 -223 146 -223 q 133 -223 121 -218 q 109 -214 98 -203 l 118 -183 q 123 -187 130 -190 q 138 -194 145 -194 q 146 -194 146 -194 q 147 -194 148 -194 l 148 16 q 135 8 122 4 q 110 0 97 0 q 57 0 28 34 q -1 68 -1 113 q -1 157 28 192 q 57 226 97 226 q 110 226 122 222 q 135 217 148 209 q 148 211 148 213 q 148 215 148 217 q 148 219 148 221 q 148 223 148 225 l 216 225 l 216 -154 z m 187 -165 l 187 195 l 176 195 l 176 -193 q 181 -186 184 -179 q 187 -172 187 -164 z m 148 54 l 148 171 q 140 181 132 186 q 123 192 114 192 q 107 192 100 188 q 94 183 87 172 q 80 159 76 144 q 72 129 72 112 q 72 96 76 81 q 80 66 87 54 q 94 43 102 38 q 109 33 116 34 q 124 34 132 40 q 141 45 148 54 z m 63 39 q 55 51 50 68 q 46 85 45 102 q 45 104 45 106 q 45 108 45 110 q 45 112 45 114 q 45 116 45 118 q 46 137 51 156 q 56 174 63 187 q 44 175 34 155 q 25 135 25 112 q 25 90 34 70 q 44 50 63 39 z"},"j":{"x_min":0,"x_max":91,"ha":91,"o":"m 78 -154 q 78 -167 72 -180 q 67 -193 57 -202 q 48 -212 36 -218 q 23 -223 8 -223 q 1 -223 -5 -222 q -11 -220 -17 -218 q -24 -215 -30 -212 q -35 -208 -40 -203 l -20 -183 q -16 -185 -13 -188 q -10 -190 -6 -191 q -2 -193 1 -194 q 4 -194 8 -194 q 9 -194 9 -194 q 9 -194 9 -194 l 9 225 l 78 225 l 78 -154 z m 49 -154 l 49 196 l 38 196 l 38 -182 q 43 -176 46 -168 q 49 -161 49 -153 z m 87 348 q 87 330 74 317 q 61 304 42 304 q 24 304 12 317 q -1 330 -1 348 q -1 367 12 380 q 24 393 42 393 q 61 393 74 380 q 87 367 87 348 z m 58 348 q 58 355 54 360 q 49 364 42 364 q 36 364 32 360 q 27 355 27 348 q 27 342 32 338 q 36 333 42 333 q 49 333 54 338 q 58 342 58 348 z"},"i":{"x_min":0,"x_max":135,"ha":135,"o":"m 123 60 q 123 35 106 18 q 88 1 64 1 q 40 1 23 18 q 6 35 6 60 l 6 219 l 74 219 l 74 39 q 74 37 76 36 q 77 34 79 34 q 80 34 80 34 q 81 35 81 35 q 87 40 90 46 q 94 53 94 60 l 123 60 z m 45 37 q 45 37 45 38 q 45 38 45 39 l 45 190 l 34 190 q 34 174 34 158 q 34 141 34 125 q 34 109 34 92 q 34 76 34 60 q 34 53 38 47 q 41 41 45 37 z m 84 348 q 84 330 71 317 q 58 304 40 304 q 21 304 8 317 q -4 330 -4 348 q -4 367 8 380 q 21 393 40 393 q 58 393 71 380 q 84 367 84 348 z m 56 348 q 56 355 51 360 q 46 364 40 364 q 33 364 28 360 q 24 355 24 348 q 24 342 28 338 q 33 333 40 333 q 46 333 51 338 q 56 342 56 348 z"},"y":{"x_min":0,"x_max":228,"ha":228,"o":"m 206 -154 q 206 -182 186 -202 q 165 -223 136 -223 q 123 -223 110 -218 q 97 -213 87 -203 l 108 -183 q 113 -187 120 -190 q 127 -194 134 -194 q 135 -194 136 -194 q 136 -194 137 -194 l 137 24 q 124 14 106 7 q 89 0 71 0 q 58 0 46 4 q 34 9 23 18 q 13 26 8 38 q 2 49 2 62 l 2 225 l 72 225 l 72 47 q 72 40 78 36 q 83 33 90 33 q 91 33 92 33 q 93 33 94 33 q 94 33 95 34 q 96 34 97 34 q 109 39 120 47 q 130 55 137 65 l 137 225 l 206 225 l 206 -154 z m 177 -154 l 177 196 l 166 196 l 166 -182 q 171 -176 174 -168 q 177 -161 177 -153 z m 44 38 q 43 40 43 42 q 43 45 43 47 l 43 196 l 31 196 l 31 62 q 31 55 34 49 q 38 43 44 38 z"},"@":{"x_min":0,"x_max":1015,"ha":1015,"o":"m 326 222 q 309 202 288 190 q 268 179 247 179 q 224 179 202 192 q 180 206 166 234 q 153 262 153 295 q 153 337 174 378 q 195 419 226 440 q 258 461 287 461 q 310 461 330 449 q 351 437 366 413 l 374 453 l 421 453 l 384 279 q 376 243 376 239 q 376 232 381 227 q 386 222 394 222 q 408 222 430 238 q 459 258 476 293 q 494 328 494 365 q 494 409 472 446 q 450 484 406 506 q 362 529 309 529 q 248 529 198 500 q 148 472 120 419 q 92 366 92 305 q 92 242 120 196 q 148 150 200 128 q 252 106 316 106 q 384 106 430 129 q 475 152 498 185 l 545 185 q 532 157 500 129 q 468 101 424 84 q 379 68 316 68 q 259 68 210 82 q 162 97 128 127 q 93 157 76 195 q 54 244 54 301 q 54 365 80 422 q 112 492 170 530 q 228 567 311 567 q 375 567 426 540 q 478 514 507 462 q 532 417 532 365 q 532 289 479 231 q 432 179 376 179 q 358 179 347 184 q 336 189 331 200 q 328 206 326 222 z m 201 292 q 201 257 218 237 q 234 217 256 217 q 271 217 287 226 q 303 235 318 252 q 332 269 342 296 q 351 322 351 348 q 351 383 334 402 q 316 422 291 422 q 274 422 260 414 q 245 405 231 386 q 217 368 209 342 q 201 315 201 292 z"},".":{"x_min":0,"x_max":130,"ha":130,"o":"m 95 36 q 95 18 82 6 q 69 -7 51 -7 q 32 -7 19 6 q 6 18 6 36 q 6 55 19 68 q 32 81 51 81 q 69 81 82 68 q 95 55 95 36 z m 66 36 q 66 43 62 48 q 57 52 51 52 q 44 52 40 48 q 35 43 35 36 q 35 30 40 26 q 44 21 51 21 q 57 21 62 26 q 66 30 66 36 z"},"p":{"x_min":0,"x_max":225,"ha":225,"o":"m 186 34 q 172 18 153 10 q 134 1 114 1 q 110 1 106 2 q 103 2 99 2 q 91 4 84 7 q 76 10 69 14 l 69 -224 l 0 -224 l 0 269 q 6 269 12 269 q 17 269 23 269 q 35 269 46 269 q 58 269 69 269 l 69 212 q 75 215 80 218 q 86 220 92 222 q 98 223 104 224 q 109 225 115 225 q 135 225 154 216 q 172 208 186 191 q 200 175 208 154 q 215 134 214 112 q 214 91 207 71 q 200 51 186 34 z m 40 -195 l 40 240 l 29 240 l 29 -195 l 40 -195 z m 126 54 q 132 64 136 77 q 139 90 140 104 q 140 106 140 108 q 140 111 140 113 q 140 115 140 118 q 140 120 140 122 q 139 136 136 149 q 132 162 126 172 q 126 173 126 174 q 125 174 124 175 q 119 181 112 187 q 105 193 97 193 q 96 193 95 193 q 94 193 94 192 q 93 192 92 192 q 91 191 90 191 q 84 188 79 184 q 74 180 69 175 l 69 50 q 77 43 84 38 q 92 33 99 33 q 106 33 112 38 q 119 43 126 54 z m 152 42 q 168 53 176 70 q 185 88 186 107 q 186 108 186 110 q 186 111 186 113 q 186 115 186 116 q 186 118 186 119 q 185 138 176 156 q 167 173 152 184 q 161 168 165 150 q 169 132 169 112 q 169 93 164 75 q 160 57 152 42 z"},"X":{"x_min":0,"x_max":683,"ha":683,"o":"m 670 0 l 454 0 l 454 29 l 511 29 l 386 254 q 355 206 324 158 q 292 110 261 62 q 241 31 210 13 q 180 -5 147 -9 q 143 -9 138 -10 q 134 -10 129 -10 q 92 -10 60 10 q 27 29 10 72 q 6 85 4 98 q 1 112 1 125 q 1 150 10 173 q 19 196 38 214 q 52 227 68 233 q 83 239 99 238 q 136 238 166 212 q 195 186 195 146 q 195 144 195 141 q 195 138 194 135 q 192 114 179 102 q 166 90 149 90 q 146 90 143 90 q 140 91 137 92 q 131 94 125 98 q 119 103 113 109 q 106 117 103 126 q 100 134 100 141 q 101 155 110 163 q 118 171 130 170 q 133 170 136 170 q 139 169 142 168 q 148 166 154 162 q 161 157 166 149 q 164 175 144 192 q 123 210 99 210 q 88 210 77 206 q 66 202 57 193 q 43 180 36 162 q 29 144 29 124 q 29 123 29 122 q 29 120 29 118 q 31 81 58 50 q 84 18 125 18 q 160 18 189 33 q 218 48 237 78 q 270 129 303 180 q 336 231 370 283 l 220 553 l 149 553 l 149 582 l 364 582 l 364 553 l 305 553 l 416 353 l 545 553 l 487 553 l 487 582 l 639 582 l 639 553 l 579 553 l 431 325 l 594 29 l 670 29 l 670 0 z m 562 29 l 272 553 l 252 553 l 544 29 l 562 29 z"},"*":{"x_min":0,"x_max":180,"ha":180,"o":"m 172 483 l 158 458 l 105 488 l 105 427 l 76 427 l 76 489 l 23 459 l 8 483 l 61 514 l 8 544 l 23 569 l 76 538 l 76 600 l 105 600 l 105 539 l 158 570 l 172 545 l 119 514 l 172 483 z"},"Y":{"x_min":0,"x_max":527,"ha":527,"o":"m 494 328 q 485 296 472 262 q 460 229 444 196 q 406 113 352 35 q 297 -43 235 -98 q 232 -101 229 -104 q 226 -106 222 -108 q 203 -123 180 -136 q 158 -150 135 -156 q 131 -157 126 -158 q 122 -159 117 -159 q 115 -159 113 -159 q 111 -159 109 -159 q 104 -159 100 -158 q 95 -158 90 -158 q 55 -154 26 -134 q -2 -113 -2 -75 q -2 -75 -2 -74 q -2 -74 -2 -74 q -2 -74 -2 -74 q -2 -73 -2 -73 q -1 -45 12 -32 q 25 -20 42 -18 q 45 -17 48 -17 q 50 -17 53 -17 q 64 -17 73 -20 q 82 -22 86 -26 q 94 -33 100 -42 q 107 -52 109 -63 q 109 -64 109 -66 q 109 -68 109 -69 q 109 -76 106 -82 q 104 -88 98 -93 q 94 -97 90 -98 q 86 -100 81 -99 q 79 -99 78 -99 q 76 -99 75 -98 q 63 -96 53 -86 q 43 -77 37 -66 q 35 -64 34 -61 q 33 -58 32 -55 q 29 -59 28 -64 q 26 -69 26 -75 q 26 -78 26 -81 q 27 -84 28 -87 q 33 -104 52 -118 q 71 -131 107 -130 q 109 -130 112 -130 q 114 -130 116 -130 q 122 -130 128 -128 q 135 -127 141 -124 q 156 -119 170 -110 q 184 -101 197 -91 q 202 -87 207 -84 q 212 -80 216 -76 q 230 -65 242 -52 q 255 -39 268 -25 l 74 553 l -3 553 l -3 582 l 213 582 l 213 553 l 154 553 l 324 44 q 351 82 375 124 q 399 166 419 208 q 434 240 446 272 q 458 304 467 335 q 472 352 476 371 q 479 390 482 410 q 483 420 484 430 q 484 440 484 449 q 484 501 461 540 q 438 578 374 578 q 337 578 312 550 q 287 523 287 490 q 287 489 287 488 q 287 488 287 487 q 287 474 291 461 q 295 448 305 437 l 283 418 q 272 431 266 446 q 260 460 259 475 q 258 478 258 481 q 258 484 258 487 q 258 532 291 570 q 324 607 375 607 q 454 607 484 559 q 513 511 512 448 q 512 438 512 428 q 511 418 510 407 q 508 387 504 367 q 500 347 494 328 z m 303 16 l 124 553 l 104 553 l 290 0 q 292 2 294 4 q 295 6 297 8 q 298 10 300 12 q 302 14 303 16 z"},"c":{"x_min":0,"x_max":212,"ha":212,"o":"m 202 46 q 186 23 167 12 q 148 0 119 0 q 67 0 34 36 q 2 71 2 114 q 2 117 2 120 q 2 124 3 128 q 5 145 14 162 q 22 178 37 192 q 54 209 76 217 q 98 225 120 225 q 123 225 126 225 q 129 225 133 224 q 136 224 139 224 q 142 223 145 222 q 149 221 154 220 q 158 219 162 217 q 167 215 172 212 q 178 210 182 207 q 189 202 193 196 q 197 191 199 185 q 200 182 200 180 q 201 177 201 174 q 201 161 192 152 q 182 142 168 142 q 164 142 160 143 q 155 144 150 146 q 148 147 146 148 q 143 150 141 152 q 133 157 128 166 q 122 176 122 186 q 122 188 122 190 q 122 192 123 194 q 104 189 94 166 q 85 142 84 115 q 84 115 84 114 q 84 113 84 112 q 84 81 96 56 q 108 30 131 30 q 137 30 142 32 q 148 34 153 36 q 159 40 165 46 q 171 53 178 62 l 202 46 z m 73 39 q 64 53 60 72 q 56 91 56 111 q 56 132 60 152 q 65 172 73 187 q 54 175 44 155 q 35 135 35 112 q 35 90 44 70 q 54 50 73 39 z"},"!":{"x_min":0,"x_max":130,"ha":130,"o":"m 95 36 q 95 18 82 6 q 69 -7 51 -7 q 32 -7 19 6 q 6 18 6 36 q 6 55 19 68 q 32 81 51 81 q 69 81 82 68 q 95 55 95 36 z m 66 36 q 66 43 62 48 q 57 52 51 52 q 44 52 40 48 q 35 43 35 36 q 35 30 40 26 q 44 21 51 21 q 57 21 62 26 q 66 30 66 36 z m 125 561 l 104 540 q 99 545 92 548 q 86 552 78 552 q 77 552 76 552 q 76 552 75 552 l 75 140 q 75 138 76 136 q 78 135 80 135 q 81 135 82 136 q 82 136 82 136 q 84 137 86 138 q 87 140 88 142 l 102 115 q 94 108 85 105 q 76 102 65 102 q 40 102 23 119 q 6 136 6 160 l 6 511 q 6 540 26 560 q 47 581 75 581 q 89 581 102 576 q 115 571 125 561 z m 46 137 q 46 138 46 138 q 46 139 46 140 l 46 539 q 41 534 38 526 q 35 519 35 511 l 35 160 q 35 153 38 148 q 41 142 46 137 z"},"/":{"x_min":0,"x_max":272,"ha":272,"o":"m 249 663 l 56 -180 l 9 -180 l 201 663 l 249 663 z"},"[":{"x_min":0,"x_max":277,"ha":277,"o":"m 68 50 l 68 650 l 194 650 l 194 602 l 125 602 l 125 98 l 194 98 l 194 50 z"},"6":{"x_min":0,"x_max":344,"ha":344,"o":"m 315 216 q 316 211 316 206 q 316 200 316 195 q 316 186 316 177 q 315 168 313 159 q 305 102 270 53 q 236 4 177 -3 q 173 -4 168 -4 q 164 -4 160 -4 q 132 -4 106 8 q 81 19 61 38 q 33 66 18 104 q 4 143 3 183 q 3 186 3 188 q 3 190 3 192 q 3 224 11 256 q 19 287 35 313 l 199 582 l 287 582 l 170 389 q 229 384 265 338 q 301 292 312 238 q 313 232 314 226 q 314 221 315 216 z m 285 224 q 284 230 283 236 q 282 241 280 247 q 268 290 238 326 q 207 362 159 361 q 158 361 156 361 q 155 361 153 361 l 33 164 q 34 157 36 150 q 37 143 39 136 q 51 94 82 58 q 113 23 160 24 q 161 24 162 24 q 162 24 163 24 l 285 224 z m 286 171 l 203 34 q 236 50 256 82 q 276 115 283 151 q 284 156 285 161 q 286 166 286 171 z m 236 553 l 215 553 q 176 489 137 426 q 98 362 59 298 q 49 280 42 260 q 35 240 33 219 l 236 553 z"},"r":{"x_min":0,"x_max":234,"ha":234,"o":"m 212 148 q 208 143 202 140 q 196 138 190 138 q 185 139 180 140 q 176 141 171 144 q 162 149 156 159 q 149 169 147 180 q 147 181 147 182 q 147 184 147 185 q 147 187 147 188 q 147 189 148 191 q 148 192 148 194 q 149 195 149 196 q 148 196 148 196 q 147 196 147 196 q 146 196 146 196 q 145 196 144 196 q 141 196 138 196 q 134 195 130 194 q 126 193 122 192 q 119 190 116 188 q 118 183 119 178 q 120 172 120 166 l 120 0 l 52 0 l 52 187 q 52 187 52 188 q 52 188 52 189 q 51 189 50 190 q 49 191 49 192 q 48 192 48 192 q 47 192 47 192 q 47 192 46 192 q 46 192 46 192 q 46 191 46 191 q 45 191 45 191 q 39 187 36 180 q 32 174 32 166 l 3 166 q 3 193 22 209 q 40 225 62 225 q 72 225 82 222 q 91 219 99 211 q 111 218 123 222 q 135 225 148 225 q 161 225 173 222 q 185 218 196 211 q 205 206 212 196 q 218 186 220 175 q 220 174 220 172 q 220 171 220 170 q 220 164 218 158 q 217 153 212 148 z m 92 29 q 92 64 92 98 q 92 132 92 166 q 92 173 89 179 q 86 185 81 189 q 81 189 81 188 q 81 188 81 187 l 81 29 l 92 29 z"},"2":{"x_min":0,"x_max":259,"ha":259,"o":"m 223 0 l 4 0 q 23 31 42 62 q 62 93 81 124 q 101 154 120 185 q 140 216 159 247 q 166 258 170 272 q 175 286 175 300 q 175 313 170 325 q 166 337 157 347 q 151 354 144 358 q 138 361 131 363 q 128 364 124 364 q 121 365 118 365 q 116 365 114 365 q 111 365 108 364 q 96 362 84 354 q 73 347 64 337 q 52 323 44 304 q 37 285 37 263 l 8 264 q 8 265 8 266 q 8 267 8 267 q 10 312 38 350 q 65 387 112 394 q 116 395 120 395 q 123 395 127 395 q 150 395 171 386 q 192 378 208 361 q 224 344 232 322 q 239 299 239 275 q 239 272 239 270 q 239 267 239 264 q 237 244 230 225 q 224 206 213 190 l 214 191 l 111 29 l 223 29 l 223 0 z m 201 320 q 203 314 203 308 q 203 302 203 296 q 203 279 198 262 q 193 245 183 231 l 183 232 l 56 29 l 77 29 q 91 51 105 73 q 119 95 134 118 q 148 140 162 162 q 176 184 190 206 q 200 222 206 240 q 211 258 211 277 q 211 282 210 288 q 210 293 209 299 q 207 304 206 310 q 204 315 201 320 z"},"{":{"x_min":0,"x_max":333,"ha":333,"o":"m 27 360 q 50 361 64 372 q 79 384 84 404 q 88 425 88 474 q 89 522 90 538 q 93 563 100 578 q 107 593 118 602 q 128 610 145 615 q 156 618 181 618 l 197 618 l 197 572 l 188 572 q 158 572 148 561 q 138 550 138 512 q 138 435 135 415 q 129 383 116 366 q 104 349 76 336 q 109 323 124 295 q 138 267 138 204 q 138 147 139 136 q 141 116 150 108 q 160 101 188 101 l 197 101 l 197 55 l 181 55 q 152 55 139 59 q 120 66 108 81 q 96 96 92 120 q 89 143 88 196 q 88 248 84 268 q 79 289 64 300 q 50 312 27 313 z"},"9":{"x_min":0,"x_max":342,"ha":342,"o":"m 283 79 l 119 -190 l 31 -190 l 148 3 q 89 8 53 54 q 17 100 6 154 q 5 160 4 166 q 4 171 3 176 q 2 181 2 186 q 2 192 2 197 q 2 206 2 215 q 3 224 5 233 q 13 290 48 339 q 82 388 141 396 q 146 397 150 397 q 154 397 158 397 q 187 397 212 386 q 237 374 257 354 q 285 326 300 288 q 314 249 315 209 q 315 206 315 204 q 315 202 315 200 q 315 168 307 136 q 299 105 283 79 z m 285 173 l 82 -161 l 103 -161 q 142 -96 181 -33 q 220 30 259 94 q 270 112 276 132 q 283 152 285 173 z m 285 228 q 284 235 282 242 q 281 249 279 256 q 267 298 236 334 q 205 369 158 368 q 157 368 156 368 q 156 368 155 368 l 33 168 q 34 162 35 156 q 36 151 38 145 q 50 102 80 66 q 111 30 159 31 q 161 31 162 31 q 164 31 165 31 l 285 228 z m 115 358 q 82 342 62 310 q 42 277 35 241 q 34 236 33 231 q 32 226 32 221 l 115 358 z"}," ":{"x_min":0,"x_max":200,"ha":200,"o":""},"I":{"x_min":0,"x_max":237,"ha":237,"o":"m 216 0 l 0 0 l 0 29 l 72 29 l 72 553 l 0 553 l 0 582 l 216 582 l 216 553 l 147 553 l 147 29 l 216 29 l 216 0 z m 118 29 l 118 553 l 101 553 l 101 29 l 118 29 z"},"H":{"x_min":0,"x_max":585,"ha":585,"o":"m 566 0 l 350 0 l 350 29 l 423 29 l 423 299 l 147 299 q 147 229 147 158 q 147 87 147 16 q 147 10 146 4 q 146 -2 146 -9 q 139 -91 88 -160 q 37 -229 -54 -229 q -56 -229 -58 -229 q -60 -229 -62 -229 q -115 -226 -159 -192 q -203 -158 -203 -100 q -203 -76 -190 -57 q -176 -38 -153 -30 q -152 -30 -150 -30 q -149 -29 -148 -29 q -147 -28 -146 -28 q -144 -28 -143 -28 q -127 -29 -114 -42 q -102 -54 -98 -69 q -97 -72 -96 -74 q -96 -77 -96 -80 q -96 -88 -99 -94 q -102 -100 -108 -104 q -113 -107 -118 -108 q -122 -110 -126 -110 q -140 -110 -152 -100 q -163 -90 -168 -78 q -171 -84 -172 -90 q -174 -96 -174 -102 q -174 -105 -174 -108 q -174 -110 -173 -112 q -170 -130 -160 -146 q -151 -161 -139 -171 q -124 -184 -104 -192 q -83 -200 -57 -200 q -56 -200 -56 -200 q -55 -200 -54 -200 q 3 -200 31 -158 q 59 -116 67 -65 q 69 -53 70 -40 q 71 -28 71 -16 l 71 553 l 0 553 l 0 582 l 216 582 l 216 553 l 147 553 l 147 328 l 423 328 l 423 553 l 350 553 l 350 582 l 566 582 l 566 553 l 497 553 l 497 29 l 566 29 l 566 0 z m 118 16 l 118 553 l 100 553 q 100 411 100 268 q 100 126 100 -16 q 100 -42 97 -65 q 94 -88 87 -110 q 102 -83 110 -50 q 118 -18 118 16 z m 468 29 l 468 553 l 451 553 l 451 29 l 468 29 z"},"4":{"x_min":0,"x_max":352,"ha":352,"o":"m 329 67 l 278 67 l 278 -58 l 205 -58 l 205 67 l 1 67 l 140 395 l 220 395 l 94 96 l 205 96 l 205 333 l 278 333 l 278 96 l 329 96 l 329 67 z m 250 -29 l 250 67 l 233 67 l 233 -29 l 250 -29 z m 176 366 l 159 366 l 45 96 l 62 96 l 176 366 z m 250 96 l 250 305 l 233 305 l 233 96 l 250 96 z"},"~":{"x_min":0,"x_max":583,"ha":583,"o":"m 42 272 l 42 339 q 77 378 133 378 q 153 378 174 372 q 196 367 236 350 q 259 340 270 337 q 282 334 293 334 q 314 334 337 347 q 360 360 378 379 l 378 310 q 357 290 336 281 q 314 272 287 272 q 267 272 249 276 q 231 281 192 298 q 154 316 128 316 q 107 316 88 307 q 70 298 42 272 z"},"D":{"x_min":0,"x_max":609,"ha":609,"o":"m 508 496 q 552 452 572 400 q 593 347 592 293 q 592 181 513 90 q 434 0 303 0 l 87 0 l 87 29 l 160 29 l 160 155 q 91 175 46 232 q 1 290 1 363 q 1 461 67 521 q 133 581 228 582 q 246 611 268 638 q 290 664 315 686 l 334 665 q 333 664 332 662 q 330 661 329 660 q 327 659 326 658 q 325 656 323 655 q 308 636 296 618 q 285 599 276 582 q 344 582 402 564 q 459 547 508 496 z m 213 485 q 201 451 194 414 q 188 377 188 338 l 188 29 l 205 29 q 205 106 205 184 q 205 261 205 338 q 205 381 206 416 q 208 452 213 485 z m 516 291 q 516 389 451 471 q 386 553 281 553 q 277 553 272 553 q 268 553 263 553 q 244 509 239 462 q 234 416 234 369 q 234 361 234 354 q 234 346 234 338 q 234 317 234 296 q 234 276 234 256 q 234 236 234 216 q 234 195 234 174 q 262 175 288 184 q 315 192 337 207 l 353 184 q 327 166 296 156 q 266 146 234 145 l 234 29 l 281 29 q 386 29 451 110 q 516 192 516 291 z m 474 92 q 519 132 542 184 q 564 237 564 292 q 564 347 542 399 q 519 451 474 490 q 510 448 528 396 q 545 344 545 290 q 545 237 527 186 q 509 134 474 92 z m 212 552 q 134 548 82 496 q 29 443 29 363 q 29 302 66 254 q 103 205 160 185 q 160 197 160 208 q 160 220 160 232 q 159 315 165 394 q 171 474 212 552 z"},"^":{"x_min":0,"x_max":469,"ha":469,"o":"m 84 478 l 26 478 l 136 728 l 182 728 l 293 478 l 236 478 l 159 664 z"},"0":{"x_min":0,"x_max":345,"ha":345,"o":"m 271 59 q 250 32 224 18 q 197 3 170 0 q 167 0 164 0 q 162 0 159 0 q 128 0 100 15 q 71 30 48 59 q 26 88 14 124 q 3 161 3 198 q 3 236 14 272 q 26 307 48 335 q 69 363 98 379 q 127 395 160 395 q 192 395 221 379 q 250 363 271 335 q 294 307 305 271 q 316 235 316 197 q 316 160 305 124 q 294 88 271 59 z m 249 77 q 269 102 278 133 q 288 164 288 197 q 288 230 278 262 q 269 293 249 318 q 232 341 209 354 q 186 366 160 366 q 145 366 132 354 q 118 341 107 320 q 95 297 88 266 q 82 234 82 197 q 82 161 88 130 q 95 98 107 75 q 118 53 132 41 q 145 29 160 29 q 186 29 209 42 q 232 55 249 77 z m 79 67 q 67 92 60 122 q 53 153 52 184 q 52 188 52 191 q 52 194 52 197 q 52 232 59 266 q 66 300 79 328 q 57 304 46 272 q 34 240 32 206 q 32 204 32 202 q 32 199 32 197 q 32 161 44 127 q 56 93 79 67 z"},"F":{"x_min":0,"x_max":587,"ha":587,"o":"m 569 445 l 541 445 l 541 553 l 365 553 q 361 530 360 500 q 359 470 359 430 q 359 418 359 406 q 359 395 359 383 q 359 371 359 360 q 359 348 359 336 l 468 336 l 468 418 l 497 418 l 497 225 l 468 225 l 468 307 l 359 307 q 359 300 359 294 q 359 287 359 280 q 359 274 359 267 q 359 260 359 254 q 359 233 358 213 q 357 193 353 174 q 359 174 364 174 q 370 174 376 175 q 382 176 388 177 q 393 178 399 179 l 405 151 q 393 148 380 146 q 368 145 355 145 q 353 145 350 145 q 348 145 346 145 q 325 78 274 31 q 223 -16 149 -16 q 91 -16 45 19 q -1 54 -1 118 q -1 160 30 192 q 62 224 100 225 q 101 225 102 225 q 102 225 103 225 q 118 225 132 220 q 146 214 159 201 q 169 191 176 176 q 182 162 184 146 q 184 145 184 144 q 184 142 184 140 q 184 138 184 136 q 184 133 183 131 q 183 126 182 122 q 180 117 177 113 q 172 103 163 97 q 154 91 143 92 q 140 92 137 92 q 134 93 131 94 q 117 99 109 110 q 101 121 99 133 q 99 135 98 138 q 98 140 98 143 q 98 155 104 164 q 111 173 124 173 q 127 173 130 172 q 134 172 138 170 q 141 169 144 168 q 147 166 149 164 q 142 181 129 188 q 116 196 102 196 q 100 196 98 196 q 95 196 92 195 q 67 191 46 170 q 26 148 26 118 q 26 68 64 40 q 101 12 148 12 q 193 12 222 46 q 251 79 266 120 q 269 130 272 140 q 275 149 277 158 q 212 181 170 237 q 129 293 129 363 q 129 448 182 508 q 236 569 320 580 q 341 616 374 642 q 406 669 443 688 l 457 663 q 431 650 408 630 q 384 610 373 582 l 569 582 l 569 445 z m 335 545 q 325 522 320 494 q 314 465 314 430 q 314 382 314 334 q 314 286 314 238 q 314 193 306 152 q 297 111 280 78 q 304 109 318 150 q 331 192 331 238 q 331 286 331 334 q 331 382 331 430 q 331 466 332 494 q 332 522 335 545 z m 305 548 q 232 532 195 479 q 158 426 158 365 q 158 310 189 260 q 220 211 282 187 q 283 195 284 204 q 284 212 285 221 q 285 225 285 230 q 285 234 285 238 q 285 286 285 334 q 285 382 285 430 q 285 465 290 494 q 295 523 305 548 z"},"`":{"x_min":0,"x_max":219,"ha":219,"o":"m 172 636 l 156 612 l 45 686 l 61 710 l 172 636 z"},"k":{"x_min":0,"x_max":267,"ha":267,"o":"m 256 60 q 256 32 238 16 q 219 1 196 1 q 180 1 166 10 q 153 18 145 34 q 142 41 138 48 q 134 54 130 61 q 119 81 104 99 q 88 117 69 126 l 69 0 l 0 0 l 0 512 q 0 544 22 563 q 44 582 70 582 q 83 582 96 578 q 108 573 118 562 l 98 541 q 93 546 86 550 q 79 553 71 553 q 70 553 70 553 q 69 553 68 553 l 69 192 q 83 209 102 217 q 121 225 141 225 q 145 225 149 224 q 153 224 157 223 q 165 222 174 219 q 182 216 189 211 q 198 206 204 196 q 211 186 213 175 q 213 174 213 172 q 213 171 213 170 q 213 169 213 167 q 213 165 212 164 q 212 161 211 158 q 210 155 208 152 q 204 145 198 142 q 191 138 184 138 q 183 138 182 138 q 180 138 179 138 q 164 141 152 154 q 140 167 140 184 q 140 187 140 190 q 141 193 142 196 q 141 196 140 196 q 140 196 139 196 q 120 196 105 185 q 90 174 79 158 q 127 152 163 120 q 199 87 207 38 q 208 37 209 36 q 210 35 211 35 q 211 34 212 34 q 213 34 213 34 q 217 35 220 40 q 223 44 225 49 q 226 52 226 55 q 227 58 227 60 l 256 60 z m 40 29 l 40 540 q 35 535 32 528 q 29 520 29 512 l 29 29 l 40 29 z m 178 36 q 174 58 162 76 q 151 94 133 107 q 144 94 154 78 q 163 63 171 46 q 172 43 174 40 q 176 38 178 36 z m 177 184 q 173 189 171 188 q 169 187 169 185 q 169 184 170 182 q 170 180 170 179 q 171 176 172 174 q 174 172 176 171 q 182 165 183 168 q 184 171 182 176 q 181 179 180 181 q 179 183 177 184 z"},"u":{"x_min":0,"x_max":277,"ha":277,"o":"m 259 59 q 259 32 240 16 q 222 0 199 0 q 184 0 170 8 q 156 16 148 33 q 133 19 113 10 q 93 0 72 1 q 59 1 46 5 q 34 9 23 18 q 13 26 8 38 q 2 49 2 62 l 2 225 l 72 225 l 72 47 q 72 41 76 38 q 81 34 87 33 q 87 33 88 33 q 88 33 89 33 q 90 33 91 33 q 92 33 93 33 q 93 33 94 34 q 95 34 96 34 q 110 39 122 49 q 134 59 141 72 l 141 225 l 211 225 l 211 39 q 211 39 211 38 q 211 38 211 37 q 211 37 211 37 q 211 37 211 37 q 211 36 211 36 q 211 35 211 35 q 213 34 214 34 q 214 33 215 34 q 215 34 216 34 q 216 34 216 34 q 216 35 216 35 q 217 35 217 35 q 224 38 227 45 q 230 52 230 59 l 259 59 z m 181 36 q 181 37 181 38 q 181 38 181 39 l 181 196 l 170 196 l 170 59 q 170 52 174 46 q 177 41 181 36 z m 44 38 q 43 40 43 42 q 43 45 43 47 l 43 196 l 30 196 l 30 62 q 30 55 34 49 q 38 43 44 38 z"},"]":{"x_min":0,"x_max":277,"ha":277,"o":"m 198 47 l 198 647 l 67 647 l 67 599 l 139 599 l 139 95 l 67 95 l 67 47 z"},"U":{"x_min":0,"x_max":679,"ha":679,"o":"m 664 553 l 593 553 q 593 455 593 356 q 593 258 593 160 q 593 90 539 45 q 485 0 421 -7 q 419 -8 418 -8 q 416 -8 415 -8 q 412 -8 410 -8 q 407 -9 404 -9 q 401 -9 398 -9 q 396 -9 393 -9 q 311 -9 252 41 q 194 91 194 177 q 116 191 60 250 q 4 309 4 385 q 4 404 8 423 q 13 442 21 461 q 47 519 102 550 q 156 582 217 582 q 261 582 305 582 q 349 582 393 582 l 393 553 l 268 553 l 268 205 q 333 214 376 259 q 418 304 418 365 q 418 370 418 376 q 418 381 417 386 l 446 394 q 446 391 446 388 q 447 385 447 382 q 448 378 448 375 q 448 372 448 369 q 447 296 396 242 q 345 187 268 176 q 268 139 274 110 q 280 80 312 53 q 332 37 356 29 q 381 21 406 21 q 407 21 408 21 q 410 21 412 21 q 469 24 516 62 q 564 99 564 160 q 564 258 564 356 q 564 455 564 553 l 505 553 l 505 582 l 664 582 l 664 553 z m 256 77 q 248 92 244 108 q 239 125 239 142 q 239 245 239 348 q 239 450 239 553 l 223 553 q 223 455 223 356 q 223 258 223 160 q 223 137 232 116 q 240 94 256 77 z m 194 207 l 194 552 q 126 546 80 500 q 33 453 33 389 q 33 373 37 356 q 41 338 49 320 q 69 276 108 246 q 148 217 194 207 z"},"o":{"x_min":0,"x_max":220,"ha":220,"o":"m 202 113 q 202 112 202 112 q 202 111 202 110 q 201 69 174 34 q 146 0 102 0 q 58 0 30 34 q 3 69 2 110 q 2 111 2 112 q 2 112 2 113 q 2 155 30 190 q 57 225 102 225 q 147 225 174 190 q 202 155 202 113 z m 152 53 q 161 63 166 75 q 171 87 172 99 q 173 102 173 105 q 173 108 173 111 q 172 142 156 166 q 141 190 121 189 q 119 189 116 188 q 114 188 112 187 q 107 185 102 182 q 98 178 94 171 q 88 162 84 148 q 81 133 81 113 q 81 107 82 100 q 82 92 83 85 q 86 67 95 52 q 104 37 124 37 q 132 37 140 42 q 147 47 152 53 z m 70 39 q 61 53 56 72 q 52 91 52 111 q 52 132 56 152 q 61 172 70 187 q 51 175 41 155 q 31 135 31 112 q 31 90 41 70 q 51 50 70 39 z"},"N":{"x_min":0,"x_max":694,"ha":694,"o":"m 845 671 q 847 665 848 659 q 849 653 849 648 q 849 620 828 602 q 807 585 778 585 q 778 585 778 585 q 777 585 777 585 q 777 585 776 585 q 776 585 776 585 q 773 585 770 586 q 767 587 764 588 q 750 593 738 605 q 726 617 726 631 q 726 636 728 640 q 729 644 732 648 q 737 655 744 658 q 750 661 757 661 q 759 661 762 660 q 764 660 766 660 q 780 656 792 646 q 804 635 807 622 q 814 628 817 636 q 820 643 820 650 q 820 651 820 652 q 820 653 820 654 q 818 666 810 676 q 802 687 790 692 q 784 694 778 696 q 771 697 763 697 q 757 697 751 696 q 745 695 739 693 q 698 680 682 642 q 666 603 662 560 q 660 539 660 518 q 659 498 659 480 q 659 478 659 475 q 659 472 659 469 l 659 -1 l 636 -1 l 367 491 q 367 459 367 428 q 367 396 367 364 q 367 332 367 300 q 367 269 367 237 q 367 230 366 223 q 366 216 366 209 q 358 124 305 54 q 252 -17 158 -17 q 99 -17 52 18 q 6 54 6 117 q 6 163 35 190 q 64 217 98 221 q 102 222 105 222 q 108 222 111 222 q 141 222 165 203 q 189 184 192 143 q 192 116 180 104 q 167 91 151 91 q 150 91 150 91 q 149 91 148 91 q 133 92 120 105 q 107 118 106 139 q 106 140 106 140 q 106 141 106 142 q 106 156 115 164 q 124 171 135 171 q 141 171 147 169 q 153 167 158 163 q 151 180 138 188 q 125 195 111 195 q 109 195 106 195 q 104 195 101 194 q 76 190 56 168 q 35 147 35 117 q 35 66 73 38 q 111 11 158 11 q 237 11 282 70 q 326 129 336 200 q 337 209 338 218 q 338 228 338 237 l 338 552 l 251 552 l 251 581 l 402 581 l 406 573 l 630 163 l 630 469 q 630 470 630 470 q 630 471 630 472 q 630 491 630 514 q 631 536 633 558 q 638 610 658 656 q 678 703 731 720 q 739 723 748 724 q 757 726 766 726 q 792 725 814 712 q 836 699 845 671 z m 630 70 l 630 103 l 385 552 l 367 552 l 367 549 l 368 549 l 630 70 z"},"+":{"x_min":0,"x_max":583,"ha":583,"o":"m 175 229 l 175 350 l 55 350 l 55 401 l 175 401 l 175 521 l 226 521 l 226 401 l 346 401 l 346 350 l 226 350 l 226 229 z"},"G":{"x_min":0,"x_max":560,"ha":560,"o":"m 542 196 l 482 196 q 482 192 482 172 q 482 152 482 128 q 482 103 482 82 q 481 60 481 60 q 492 50 500 35 q 507 20 507 3 l 478 3 q 478 25 463 38 q 448 51 429 51 q 422 51 416 49 q 410 47 404 43 q 372 21 336 10 q 301 0 265 0 q 215 0 166 22 q 118 43 80 86 q 43 127 24 176 q 5 225 3 275 q 3 279 3 282 q 3 286 3 289 q 3 401 78 492 q 152 582 282 582 q 288 582 294 582 q 300 581 306 580 q 360 573 405 536 q 450 498 450 439 q 450 436 450 432 q 449 429 449 425 q 446 411 438 398 q 430 385 415 381 q 412 380 409 380 q 406 379 403 379 q 385 380 374 392 q 364 405 361 420 q 361 423 360 426 q 360 428 360 431 q 360 443 366 452 q 372 461 385 461 q 388 461 392 460 q 396 460 400 458 l 399 458 q 405 456 411 452 q 417 448 421 442 q 420 485 387 513 q 354 541 314 550 q 308 551 302 552 q 297 553 291 553 l 291 552 q 181 552 130 470 q 79 389 79 291 q 79 234 94 184 q 108 134 138 98 q 167 63 202 46 q 238 30 276 30 q 282 30 288 30 q 293 31 299 32 q 322 35 344 44 q 367 52 388 66 q 393 69 398 72 q 402 74 407 76 l 407 196 l 286 196 l 286 224 l 542 224 l 542 196 z m 453 76 l 453 196 l 436 196 l 436 79 q 438 79 440 79 q 442 79 445 78 q 447 78 449 78 q 451 77 453 76 z m 91 462 q 61 425 46 381 q 31 337 31 290 q 32 244 46 200 q 61 156 89 119 q 71 153 62 194 q 52 234 50 275 q 50 279 50 282 q 50 286 50 289 q 50 336 60 380 q 71 425 91 462 z"},"q":{"x_min":0,"x_max":244,"ha":244,"o":"m 269 -204 q 259 -214 246 -218 q 234 -223 220 -223 q 194 -223 172 -204 q 150 -185 150 -153 q 150 -132 150 -110 q 150 -89 150 -68 q 150 -47 150 -26 q 150 -4 150 16 q 138 8 126 4 q 113 0 99 0 q 80 0 62 9 q 43 18 29 34 q 15 51 8 72 q 0 92 1 114 q 1 135 8 155 q 15 175 29 191 q 43 208 62 216 q 81 225 100 225 q 113 225 126 221 q 138 217 150 209 l 150 225 l 219 225 q 219 156 219 86 q 219 15 219 -54 q 219 -89 219 -124 q 219 -159 219 -194 q 220 -194 220 -194 q 221 -194 222 -194 q 230 -194 236 -190 q 243 -187 248 -182 l 269 -204 z m 190 -182 l 190 196 l 179 196 q 179 152 179 108 q 179 65 179 21 q 179 -22 179 -66 q 179 -109 179 -153 q 179 -161 182 -168 q 185 -176 190 -181 z m 150 54 l 150 171 q 145 178 140 182 q 134 187 128 189 q 125 191 122 192 q 120 192 117 192 q 110 192 103 188 q 96 183 89 172 q 83 162 79 149 q 75 136 74 122 q 74 120 74 118 q 74 115 74 113 q 74 111 74 108 q 74 106 74 104 q 75 90 79 77 q 83 64 89 54 q 96 43 104 38 q 111 33 118 34 q 126 34 134 40 q 143 45 150 54 z m 63 42 q 54 58 50 76 q 46 95 46 114 q 46 133 50 151 q 55 169 63 184 q 46 171 38 152 q 29 133 29 112 q 29 92 38 73 q 47 54 63 42 z"},"d":{"x_min":0,"x_max":281,"ha":281,"o":"m 267 562 l 247 541 q 242 546 235 550 q 228 553 220 553 q 219 553 218 553 q 218 553 217 553 q 217 425 217 296 q 217 168 217 39 q 217 34 220 34 q 224 35 228 38 q 231 41 234 46 q 237 51 238 56 q 238 57 238 58 q 238 59 238 60 l 266 60 q 266 33 248 17 q 229 1 206 1 q 204 1 202 1 q 200 1 198 2 q 188 3 178 8 q 169 14 161 24 q 147 11 132 6 q 116 0 100 0 q 61 1 30 34 q 0 67 0 113 q 0 157 30 192 q 60 226 100 225 q 106 225 112 224 q 118 223 125 222 q 131 220 137 217 q 143 214 149 210 q 149 286 149 362 q 149 437 149 512 q 149 544 171 563 q 193 582 219 582 q 232 582 244 578 q 257 573 267 562 z m 149 53 l 149 172 q 140 183 132 188 q 124 192 116 191 q 99 191 88 171 q 77 151 75 127 q 74 123 74 120 q 74 116 74 113 q 74 95 78 80 q 82 65 89 54 q 89 53 90 52 q 90 52 91 51 q 95 45 102 39 q 109 33 117 33 q 118 33 119 33 q 120 33 121 34 q 122 34 123 34 q 124 35 125 35 q 132 38 138 43 q 144 48 149 53 z m 190 37 l 190 540 q 185 535 182 528 q 179 520 179 512 l 179 60 q 179 53 182 47 q 185 41 190 37 z m 67 39 q 58 53 54 72 q 49 91 49 111 q 49 132 54 152 q 58 172 67 187 q 48 175 38 155 q 28 135 28 112 q 28 90 38 70 q 48 50 67 39 z"},"1":{"x_min":0,"x_max":236,"ha":236,"o":"m 214 0 l 0 0 l 0 29 l 72 29 l 72 366 l 24 366 l 24 395 l 146 395 l 146 29 l 214 29 l 214 0 z m 117 29 l 117 366 l 101 366 l 101 29 l 117 29 z"},"5":{"x_min":0,"x_max":265,"ha":265,"o":"m 246 138 q 246 83 208 42 q 169 0 113 0 q 78 0 48 18 q 17 36 0 67 l 24 81 q 35 63 52 50 q 68 37 88 32 q 89 32 90 32 q 91 32 92 32 q 92 32 93 32 q 94 32 95 32 q 109 32 120 40 q 132 47 141 57 q 155 74 162 96 q 170 117 170 140 q 170 142 170 144 q 170 147 170 149 q 169 168 162 187 q 155 206 142 220 q 132 233 120 238 q 108 244 96 243 q 83 243 70 238 q 58 233 46 224 q 43 222 40 220 q 37 217 35 215 q 32 213 29 210 q 26 208 23 206 l 23 395 l 218 395 l 218 366 l 52 366 l 52 260 q 68 268 86 272 q 103 276 121 276 q 149 276 175 264 q 201 253 219 230 q 231 214 238 191 q 246 168 246 138 z m 217 138 q 217 169 206 196 q 194 224 165 238 q 182 218 190 192 q 199 167 199 140 q 199 115 192 91 q 184 67 170 47 q 193 62 205 86 q 217 111 217 138 z"}}}
